<svg xmlns="http://www.w3.org/2000/svg" viewBox="0 0 26.46 13.23">
    <path d="M25.1.34q.4 0 .68.25.27.25.27.64v2.9h-1.18v-2.8h-2.92v10.52h2.92V8.77h1.18v3.17q0 .39-.27.64a1 1 0 0 1-.68.25h-3.4q-.41 0-.67-.25c-.26-.25-.26-.38-.26-.64V1.32h-.76v11.5h-1.17V1.34l-2.4-.02 2.19 11.52h-1.16L15.72 2.3c-.23 1.37.73-4.57-1.78 10.52h-1.12v-.04l2.16-11.5-2.28.03v2.81h-1.16v-2.8H8.7v2.63l3.64 4.16q.36.42.36.93v2.89q0 .39-.26.64a1 1 0 0 1-.66.25h-3.3a1 1 0 0 1-.69-.25.8.8 0 0 1-.26-.64V8.77H8.7v3.07h2.84V8.87L7.9 4.7a1.4 1.4 0 0 1-.38-.95V1.3h-.7v11.52H5.64V1.32H3.62v11.5H2.45V1.33H.4V.34z" aria-label="TISAIC"/>
</svg>
