<svg id="svg" xmlns="http://www.w3.org/2000/svg" xmlns:xlink="http://www.w3.org/1999/xlink" width="400" height="229.09367859862908" viewBox="0, 0, 400,229.09367859862908" version="1.1"><g id="svgg"><path id="path0" d="M2.673 0.153 C 2.262 0.564,2.509 164.087,2.921 164.400 C 3.340 164.718,57.697 164.894,58.515 164.580 C 58.843 164.455,58.877 161.903,58.877 138.037 L 58.877 111.632 61.684 111.479 C 63.227 111.395,64.671 111.323,64.891 111.319 C 65.112 111.315,65.292 111.235,65.292 111.141 C 65.292 111.047,65.704 110.991,66.208 111.017 C 66.712 111.042,67.125 110.990,67.125 110.899 C 67.125 110.809,67.919 110.612,68.889 110.461 C 69.860 110.310,70.710 110.105,70.779 110.005 C 70.926 109.792,73.521 109.169,73.940 109.246 C 74.098 109.275,74.227 109.191,74.227 109.059 C 74.227 108.928,74.427 108.820,74.671 108.820 C 74.916 108.820,75.177 108.722,75.252 108.601 C 75.326 108.481,75.525 108.435,75.694 108.500 C 75.862 108.564,76.143 108.477,76.316 108.305 C 76.490 108.133,77.122 107.856,77.721 107.689 C 78.319 107.522,78.809 107.296,78.809 107.187 C 78.809 107.077,79.008 106.987,79.251 106.987 C 79.494 106.987,79.846 106.834,80.034 106.646 C 80.262 106.418,80.404 106.390,80.461 106.562 C 80.517 106.729,80.681 106.686,80.925 106.442 C 81.132 106.235,81.617 106.002,82.003 105.925 C 82.388 105.848,82.703 105.683,82.703 105.560 C 82.703 105.436,82.857 105.394,83.044 105.466 C 83.237 105.539,83.361 105.480,83.331 105.329 C 83.301 105.181,83.379 105.051,83.505 105.039 C 84.009 104.992,84.765 104.655,84.765 104.477 C 84.765 104.374,85.131 104.221,85.579 104.137 C 86.027 104.053,86.449 103.839,86.517 103.662 C 86.629 103.369,87.186 103.086,87.901 102.957 C 88.050 102.930,88.405 102.692,88.689 102.428 C 88.972 102.164,89.397 101.947,89.633 101.947 C 89.869 101.947,90.002 101.852,89.930 101.735 C 89.858 101.618,90.008 101.456,90.263 101.375 C 90.524 101.292,90.660 101.116,90.573 100.976 C 90.473 100.814,90.554 100.776,90.799 100.870 C 91.008 100.951,91.180 100.917,91.180 100.795 C 91.180 100.673,91.329 100.573,91.510 100.573 C 91.692 100.573,91.976 100.386,92.141 100.157 C 92.405 99.789,93.069 99.390,93.509 99.333 C 93.755 99.301,94.044 98.951,94.044 98.685 C 94.044 98.550,94.217 98.414,94.430 98.383 C 94.865 98.319,96.678 96.926,96.678 96.655 C 96.678 96.559,96.892 96.412,97.154 96.329 C 97.415 96.246,97.570 96.119,97.499 96.048 C 97.427 95.976,97.588 95.805,97.857 95.668 C 98.125 95.530,98.324 95.328,98.299 95.217 C 98.274 95.107,98.480 94.901,98.757 94.759 C 99.034 94.618,99.254 94.399,99.245 94.273 C 99.236 94.147,99.453 93.923,99.729 93.776 C 100.004 93.628,100.231 93.422,100.233 93.318 C 100.239 92.983,100.598 92.543,100.776 92.653 C 100.870 92.711,101.081 92.390,101.244 91.940 C 101.463 91.333,101.592 91.203,101.740 91.437 C 101.893 91.678,101.941 91.683,101.944 91.457 C 101.950 90.977,103.460 88.875,103.665 89.062 C 103.769 89.156,103.779 89.103,103.688 88.944 C 103.596 88.786,103.683 88.495,103.880 88.298 C 104.077 88.101,104.238 87.808,104.238 87.648 C 104.238 87.488,104.444 87.170,104.696 86.942 C 104.948 86.714,105.155 86.393,105.155 86.229 C 105.155 85.819,106.211 84.295,106.379 84.462 C 106.454 84.537,106.472 84.378,106.421 84.109 C 106.369 83.840,106.412 83.620,106.518 83.620 C 106.623 83.620,106.774 83.358,106.855 83.038 C 106.943 82.684,107.103 82.518,107.259 82.615 C 107.433 82.723,107.475 82.613,107.388 82.281 C 107.317 82.009,107.340 81.836,107.439 81.897 C 107.538 81.959,107.682 81.694,107.759 81.310 C 107.839 80.910,108.000 80.674,108.136 80.758 C 108.266 80.839,108.345 80.820,108.311 80.716 C 108.186 80.336,108.895 78.599,109.119 78.737 C 109.249 78.818,109.278 78.765,109.186 78.615 C 109.096 78.470,109.104 78.222,109.204 78.064 C 109.304 77.907,109.391 77.726,109.398 77.663 C 109.446 77.202,110.301 74.875,110.457 74.779 C 110.565 74.712,110.653 74.458,110.653 74.213 C 110.653 73.969,110.736 73.769,110.837 73.769 C 110.939 73.769,111.152 72.994,111.311 72.047 C 111.494 70.961,111.689 70.379,111.841 70.473 C 111.999 70.571,112.050 70.297,111.991 69.675 C 111.941 69.154,111.971 68.729,112.057 68.729 C 112.143 68.729,112.287 68.187,112.376 67.526 C 112.465 66.864,112.602 66.220,112.680 66.094 C 112.758 65.968,112.849 65.607,112.882 65.292 C 112.915 64.977,113.020 64.049,113.115 63.230 C 113.454 60.305,113.301 48.445,112.921 48.211 C 112.846 48.164,112.808 47.761,112.838 47.316 C 112.868 46.871,112.820 46.506,112.730 46.506 C 112.641 46.506,112.432 45.656,112.265 44.616 C 112.098 43.577,111.896 42.675,111.816 42.612 C 111.680 42.504,111.094 40.085,111.053 39.462 C 111.043 39.304,110.954 39.175,110.854 39.175 C 110.755 39.175,110.606 38.813,110.523 38.371 C 110.440 37.928,110.285 37.513,110.179 37.447 C 110.073 37.382,110.044 37.176,110.115 36.992 C 110.186 36.807,110.130 36.655,109.990 36.655 C 109.851 36.655,109.737 36.491,109.737 36.290 C 109.737 36.089,109.510 35.606,109.233 35.217 C 108.957 34.829,108.853 34.587,109.004 34.680 C 109.155 34.773,109.278 34.740,109.278 34.607 C 109.278 34.473,109.187 34.364,109.076 34.364 C 108.965 34.364,108.798 34.132,108.706 33.849 C 108.614 33.565,108.511 33.256,108.479 33.162 C 108.446 33.067,108.406 32.881,108.391 32.747 C 108.375 32.614,108.259 32.568,108.133 32.646 C 108.007 32.724,107.904 32.581,107.904 32.329 C 107.904 32.077,107.801 31.808,107.675 31.730 C 107.549 31.652,107.446 31.388,107.446 31.143 C 107.446 30.899,107.355 30.699,107.243 30.699 C 107.064 30.699,106.854 30.242,106.641 29.386 C 106.603 29.231,106.401 28.934,106.193 28.726 C 105.985 28.518,105.642 27.949,105.431 27.461 C 105.219 26.974,104.968 26.575,104.872 26.575 C 104.775 26.575,104.695 26.343,104.693 26.060 C 104.690 25.691,104.634 25.631,104.496 25.849 C 104.358 26.067,104.266 25.967,104.172 25.499 C 104.100 25.138,103.776 24.558,103.452 24.208 C 103.129 23.859,102.864 23.418,102.864 23.228 C 102.864 23.038,102.761 22.946,102.635 23.024 C 102.509 23.102,102.405 23.005,102.405 22.808 C 102.405 22.612,102.296 22.451,102.163 22.451 C 102.029 22.451,101.984 22.347,102.063 22.221 C 102.141 22.094,102.044 21.928,101.847 21.852 C 101.650 21.777,101.489 21.572,101.489 21.398 C 101.489 21.223,101.283 20.952,101.031 20.794 C 100.779 20.637,100.573 20.435,100.573 20.345 C 100.573 20.255,100.341 19.932,100.057 19.628 C 99.098 18.598,98.413 17.756,98.405 17.596 C 98.400 17.509,98.190 17.237,97.938 16.993 C 97.686 16.748,97.228 16.233,96.921 15.848 C 96.613 15.462,96.278 15.199,96.176 15.262 C 96.074 15.325,95.991 15.266,95.991 15.132 C 95.991 14.804,94.613 13.387,94.364 13.458 C 94.255 13.489,93.998 13.257,93.792 12.942 C 93.587 12.628,93.287 12.371,93.128 12.371 C 92.968 12.371,92.780 12.155,92.711 11.890 C 92.642 11.625,92.482 11.472,92.356 11.550 C 92.231 11.628,91.982 11.484,91.805 11.231 C 91.628 10.978,91.417 10.836,91.337 10.916 C 91.256 10.996,91.126 10.893,91.046 10.686 C 90.967 10.479,90.783 10.309,90.638 10.309 C 90.492 10.309,90.245 10.103,90.088 9.851 C 89.930 9.599,89.659 9.393,89.484 9.393 C 89.310 9.393,89.105 9.232,89.030 9.035 C 88.954 8.838,88.795 8.736,88.677 8.809 C 88.559 8.883,88.300 8.712,88.103 8.429 C 87.862 8.085,87.741 8.027,87.736 8.254 C 87.731 8.485,87.587 8.421,87.278 8.050 C 87.030 7.753,86.827 7.578,86.827 7.661 C 86.827 7.744,86.482 7.550,86.061 7.228 C 85.639 6.907,85.176 6.644,85.030 6.644 C 84.884 6.644,84.765 6.541,84.765 6.415 C 84.765 6.289,84.688 6.209,84.593 6.237 C 84.323 6.318,81.100 4.732,81.100 4.518 C 81.100 4.412,80.997 4.389,80.871 4.467 C 80.745 4.545,80.641 4.500,80.641 4.366 C 80.641 4.233,80.564 4.141,80.470 4.161 C 80.176 4.226,79.075 3.864,78.187 3.411 C 77.720 3.173,77.220 2.978,77.077 2.978 C 76.934 2.978,76.518 2.832,76.152 2.652 C 75.786 2.473,75.178 2.275,74.800 2.212 C 73.278 1.957,72.623 1.766,72.623 1.575 C 72.623 1.465,72.546 1.394,72.451 1.417 C 72.089 1.507,69.874 1.094,69.874 0.937 C 69.874 0.845,69.590 0.762,69.244 0.751 C 68.897 0.740,68.253 0.673,67.812 0.601 C 64.768 0.108,58.903 0.010,32.169 0.005 C 16.030 0.002,2.757 0.069,2.673 0.153 M289.347 82.358 L 289.347 164.719 344.330 164.719 L 399.313 164.719 399.313 164.158 C 399.313 163.849,399.184 163.514,399.026 163.413 C 398.636 163.164,397.971 162.291,398.339 162.512 C 398.751 162.760,398.692 162.527,398.225 162.060 C 398.004 161.840,397.810 161.600,397.793 161.528 C 397.586 160.649,397.399 160.356,397.223 160.634 C 397.074 160.868,397.028 160.847,397.025 160.542 C 397.021 160.036,395.642 157.388,395.383 157.388 C 395.276 157.388,395.189 157.245,395.189 157.069 C 395.189 156.894,395.042 156.694,394.863 156.625 C 394.664 156.548,394.585 156.317,394.661 156.028 C 394.748 155.695,394.675 155.556,394.414 155.556 C 394.210 155.556,394.044 155.408,394.044 155.228 C 394.044 155.048,393.882 154.739,393.684 154.541 C 393.471 154.328,393.431 154.181,393.585 154.181 C 393.740 154.181,393.700 154.034,393.487 153.821 C 393.289 153.623,393.127 153.381,393.127 153.283 C 393.127 153.186,392.921 152.868,392.669 152.577 C 392.417 152.287,392.211 151.855,392.211 151.619 C 392.211 151.382,392.056 151.129,391.867 151.057 C 391.678 150.984,391.523 150.823,391.523 150.698 C 391.523 150.574,391.314 150.177,391.057 149.816 C 390.800 149.456,390.473 148.822,390.330 148.406 C 390.187 147.991,389.882 147.517,389.651 147.352 C 389.421 147.188,389.233 146.904,389.233 146.722 C 389.233 146.541,389.141 146.392,389.028 146.392 C 388.916 146.392,388.759 146.134,388.680 145.819 C 388.601 145.504,388.444 145.246,388.330 145.246 C 388.216 145.246,388.057 144.944,387.976 144.575 C 387.895 144.206,387.683 143.782,387.504 143.634 C 387.136 143.329,386.483 142.099,386.483 141.711 C 386.483 141.569,386.273 141.273,386.015 141.053 C 385.758 140.832,385.610 140.552,385.685 140.429 C 385.761 140.307,385.709 140.206,385.569 140.206 C 385.429 140.206,385.154 139.820,384.957 139.347 C 384.760 138.875,384.482 138.412,384.339 138.320 C 384.195 138.227,384.154 138.150,384.246 138.148 C 384.488 138.143,383.475 136.233,383.112 136.011 C 382.945 135.909,382.868 135.728,382.942 135.609 C 383.016 135.489,382.921 135.333,382.732 135.260 C 382.543 135.188,382.445 134.982,382.513 134.803 C 382.582 134.625,382.535 134.479,382.409 134.479 C 382.283 134.479,382.120 134.247,382.046 133.963 C 381.972 133.680,381.603 133.121,381.224 132.721 C 380.846 132.321,380.644 131.958,380.776 131.914 C 380.908 131.870,380.800 131.586,380.536 131.282 C 380.272 130.978,379.997 130.491,379.924 130.200 C 379.850 129.909,379.699 129.728,379.586 129.797 C 379.474 129.867,379.381 129.728,379.381 129.488 C 379.381 129.248,379.175 128.865,378.923 128.637 C 378.671 128.409,378.465 128.098,378.465 127.946 C 378.465 127.793,378.152 127.275,377.769 126.794 C 377.387 126.312,377.126 125.782,377.189 125.617 C 377.253 125.451,377.200 125.315,377.071 125.315 C 376.943 125.315,376.730 125.006,376.598 124.628 C 376.466 124.250,376.269 123.940,376.159 123.940 C 376.049 123.940,376.020 123.782,376.095 123.587 C 376.179 123.367,376.117 123.260,375.929 123.301 C 375.764 123.338,375.585 123.162,375.532 122.910 C 375.479 122.658,375.293 122.369,375.118 122.268 C 374.943 122.167,374.800 121.884,374.800 121.638 C 374.800 121.392,374.708 121.191,374.595 121.191 C 374.384 121.191,373.544 119.377,373.615 119.072 C 373.636 118.978,373.546 118.900,373.413 118.900 C 373.164 118.900,372.387 117.326,372.472 116.993 C 372.498 116.889,372.425 116.863,372.309 116.935 C 372.135 117.042,371.855 116.635,371.772 116.151 C 371.761 116.088,371.587 115.900,371.386 115.733 C 371.184 115.566,371.156 115.500,371.323 115.585 C 371.489 115.671,371.253 115.253,370.798 114.657 C 370.343 114.060,370.021 113.522,370.083 113.460 C 370.145 113.398,370.045 113.197,369.861 113.013 C 369.677 112.829,369.595 112.567,369.678 112.432 C 369.768 112.286,369.723 112.252,369.566 112.349 C 369.420 112.439,369.288 112.404,369.273 112.270 C 369.257 112.137,369.218 111.924,369.187 111.798 C 369.155 111.672,369.117 111.466,369.101 111.340 C 369.085 111.214,368.892 111.110,368.671 111.108 C 368.357 111.105,368.338 111.061,368.583 110.906 C 368.754 110.797,368.802 110.670,368.689 110.623 C 368.576 110.577,368.234 110.185,367.931 109.752 C 367.627 109.320,367.528 109.054,367.710 109.162 C 367.923 109.287,367.898 109.194,367.640 108.899 C 367.420 108.647,367.239 108.331,367.239 108.197 C 367.239 108.063,367.085 107.893,366.896 107.821 C 366.707 107.748,366.552 107.422,366.552 107.096 C 366.552 106.742,366.649 106.562,366.791 106.650 C 366.923 106.731,367.169 106.683,367.338 106.542 C 367.870 106.101,369.857 105.157,370.256 105.156 C 370.466 105.155,370.674 105.047,370.717 104.915 C 370.761 104.784,371.020 104.659,371.293 104.639 C 371.566 104.618,371.745 104.530,371.691 104.442 C 371.592 104.282,372.932 103.686,373.253 103.747 C 373.348 103.765,373.425 103.687,373.425 103.573 C 373.425 103.460,373.734 103.259,374.112 103.127 C 374.490 102.995,374.800 102.779,374.800 102.647 C 374.800 102.514,374.949 102.405,375.132 102.405 C 375.315 102.405,375.569 102.225,375.698 102.005 C 375.882 101.687,375.934 101.675,375.945 101.947 C 375.956 102.215,376.032 102.195,376.287 101.858 C 376.624 101.413,377.359 100.919,378.064 100.664 C 378.285 100.585,378.465 100.411,378.465 100.279 C 378.465 100.146,378.528 100.101,378.604 100.177 C 378.741 100.315,378.996 100.150,379.856 99.370 C 380.099 99.149,380.298 99.036,380.298 99.117 C 380.298 99.198,380.556 98.986,380.872 98.646 C 381.195 98.297,381.560 98.098,381.709 98.190 C 381.861 98.284,381.910 98.252,381.825 98.114 C 381.744 97.983,381.831 97.748,382.019 97.592 C 382.206 97.437,382.363 97.399,382.367 97.509 C 382.371 97.619,382.552 97.498,382.768 97.240 C 382.985 96.982,383.348 96.699,383.577 96.611 C 383.805 96.524,383.945 96.374,383.887 96.279 C 383.766 96.079,384.326 95.505,384.589 95.559 C 384.686 95.579,384.881 95.369,385.023 95.092 C 385.164 94.814,385.370 94.608,385.481 94.633 C 385.591 94.659,385.809 94.433,385.965 94.132 C 386.120 93.832,386.249 93.667,386.251 93.768 C 386.253 93.868,386.523 93.681,386.851 93.353 C 387.180 93.024,387.387 92.695,387.313 92.620 C 387.238 92.545,387.459 92.268,387.804 92.004 C 388.149 91.740,388.464 91.372,388.505 91.187 C 388.640 90.571,388.987 90.091,389.005 90.493 C 389.014 90.682,389.167 90.501,389.345 90.092 C 389.523 89.682,389.783 89.347,389.922 89.347 C 390.062 89.347,390.112 89.244,390.034 89.118 C 389.956 88.992,390.019 88.889,390.174 88.889 C 390.328 88.889,390.388 88.822,390.306 88.740 C 390.224 88.659,390.377 88.401,390.646 88.168 C 390.915 87.934,391.052 87.743,390.950 87.743 C 390.848 87.743,390.952 87.537,391.180 87.285 C 391.408 87.033,391.511 86.827,391.409 86.827 C 391.307 86.827,391.382 86.647,391.576 86.426 C 391.770 86.206,392.128 85.613,392.370 85.109 C 392.800 84.216,393.225 83.400,393.624 82.703 C 393.732 82.514,393.933 82.076,394.069 81.730 C 394.206 81.383,394.410 81.100,394.524 81.100 C 394.638 81.100,394.708 81.022,394.680 80.928 C 394.603 80.671,395.274 79.267,395.474 79.267 C 395.569 79.267,395.647 79.015,395.647 78.708 C 395.647 78.400,395.750 78.085,395.876 78.007 C 396.002 77.929,396.105 77.608,396.105 77.293 C 396.105 76.969,396.205 76.781,396.334 76.861 C 396.460 76.939,396.576 76.842,396.592 76.646 C 396.608 76.449,396.640 76.211,396.662 76.117 C 396.685 76.022,396.784 75.610,396.881 75.200 C 396.978 74.791,397.142 74.456,397.245 74.456 C 397.347 74.456,397.543 73.819,397.680 73.040 C 397.818 72.262,398.046 71.553,398.188 71.465 C 398.377 71.348,398.375 71.262,398.179 71.141 C 397.982 71.020,397.997 70.849,398.236 70.483 C 398.413 70.211,398.635 69.473,398.729 68.843 C 398.823 68.213,398.995 67.520,399.111 67.303 C 399.316 66.920,399.372 66.494,399.719 62.658 C 400.100 58.455,399.822 47.907,399.302 46.850 C 399.240 46.724,399.191 46.363,399.194 46.048 C 399.196 45.733,399.143 45.424,399.075 45.361 C 399.008 45.298,398.833 44.731,398.687 44.101 C 398.540 43.471,398.256 42.285,398.055 41.466 C 397.854 40.647,397.665 39.874,397.636 39.748 C 397.606 39.622,397.501 39.390,397.403 39.233 C 397.304 39.075,397.297 38.827,397.387 38.682 C 397.489 38.518,397.450 38.479,397.286 38.581 C 397.118 38.684,397.022 38.569,397.022 38.264 C 397.022 38.000,396.855 37.530,396.652 37.220 C 396.448 36.909,396.358 36.655,396.451 36.655 C 396.544 36.655,396.518 36.526,396.394 36.369 C 396.270 36.211,396.101 35.799,396.018 35.452 C 395.935 35.106,395.776 34.822,395.664 34.822 C 395.552 34.822,395.515 34.616,395.581 34.364 C 395.647 34.112,395.605 33.906,395.487 33.906 C 395.176 33.906,394.467 32.315,394.648 32.022 C 394.740 31.874,394.695 31.839,394.537 31.937 C 394.371 32.039,394.273 31.932,394.273 31.648 C 394.273 31.399,394.165 31.159,394.033 31.115 C 393.902 31.071,393.777 30.812,393.757 30.539 C 393.736 30.266,393.641 30.092,393.544 30.151 C 393.448 30.211,393.304 29.997,393.224 29.677 C 393.143 29.357,392.989 29.095,392.880 29.095 C 392.772 29.095,392.743 28.940,392.815 28.751 C 392.900 28.531,392.811 28.408,392.565 28.408 C 392.355 28.408,392.243 28.312,392.316 28.195 C 392.388 28.077,392.341 27.915,392.211 27.835 C 392.081 27.755,392.034 27.593,392.106 27.476 C 392.178 27.358,392.131 27.262,392.001 27.262 C 391.704 27.262,391.033 25.997,391.227 25.802 C 391.306 25.723,391.199 25.659,390.989 25.659 C 390.777 25.659,390.607 25.479,390.607 25.256 C 390.607 25.034,390.386 24.714,390.115 24.545 C 389.718 24.297,389.685 24.199,389.943 24.036 C 390.200 23.873,390.184 23.832,389.863 23.829 C 389.502 23.826,389.418 23.690,389.482 23.216 C 389.493 23.133,389.339 22.974,389.139 22.861 C 388.938 22.749,388.774 22.514,388.774 22.338 C 388.774 22.163,388.542 21.857,388.259 21.658 C 387.975 21.459,387.735 21.222,387.724 21.130 C 387.673 20.699,387.333 20.174,387.171 20.275 C 387.071 20.336,386.921 20.207,386.836 19.987 C 386.752 19.767,386.711 19.588,386.745 19.588 C 386.778 19.588,386.553 19.323,386.244 18.999 C 385.935 18.675,385.488 18.135,385.252 17.800 C 385.015 17.465,384.732 17.246,384.622 17.315 C 384.512 17.383,384.422 17.302,384.422 17.136 C 384.422 16.786,379.828 12.228,379.561 12.314 C 379.462 12.345,379.381 12.228,379.381 12.052 C 379.381 11.877,379.136 11.672,378.836 11.597 C 378.536 11.521,378.236 11.249,378.169 10.992 C 378.101 10.735,377.960 10.545,377.855 10.568 C 377.506 10.646,376.862 10.265,376.991 10.056 C 377.060 9.943,377.008 9.851,376.875 9.851 C 376.398 9.851,376.282 9.781,375.773 9.190 C 375.490 8.861,375.258 8.672,375.258 8.771 C 375.258 8.870,375.049 8.839,374.793 8.702 C 374.538 8.565,374.391 8.353,374.467 8.230 C 374.542 8.107,374.520 8.028,374.416 8.053 C 374.137 8.120,372.919 7.509,372.408 7.046 C 372.164 6.825,371.793 6.644,371.584 6.644 C 371.248 6.644,370.930 6.437,369.814 5.491 C 369.655 5.356,369.423 5.309,369.298 5.386 C 369.174 5.462,369.072 5.421,369.072 5.293 C 369.072 5.165,368.703 4.992,368.252 4.907 C 367.801 4.822,367.378 4.612,367.311 4.438 C 367.245 4.265,366.961 4.124,366.681 4.124 C 366.401 4.124,365.664 3.866,365.045 3.552 C 364.425 3.237,363.706 2.980,363.448 2.979 C 363.190 2.979,362.856 2.856,362.706 2.706 C 362.429 2.429,362.165 2.348,360.939 2.162 C 360.561 2.105,359.659 1.852,358.934 1.602 C 358.209 1.351,357.313 1.145,356.943 1.145 C 356.573 1.145,356.210 1.049,356.137 0.931 C 356.064 0.813,355.826 0.719,355.608 0.722 C 355.390 0.724,354.748 0.661,354.181 0.581 C 350.894 0.118,346.280 0.044,319.187 0.021 L 289.347 -0.003 289.347 82.358 M180.796 0.859 C 180.860 1.135,180.243 2.291,180.032 2.291 C 179.926 2.291,179.840 2.430,179.840 2.599 C 179.840 2.769,179.637 3.090,179.390 3.314 C 179.143 3.538,178.825 4.070,178.684 4.497 C 178.543 4.924,178.352 5.226,178.259 5.169 C 178.166 5.111,177.962 5.420,177.805 5.854 C 177.648 6.288,177.417 6.644,177.291 6.644 C 177.166 6.644,177.127 6.747,177.205 6.873 C 177.283 6.999,177.237 7.102,177.104 7.102 C 176.971 7.102,176.882 7.179,176.907 7.274 C 176.989 7.586,176.605 8.477,176.388 8.477 C 176.270 8.477,176.174 8.587,176.174 8.722 C 176.174 8.856,175.865 9.416,175.487 9.966 C 175.109 10.515,174.800 11.066,174.800 11.191 C 174.800 11.315,174.680 11.456,174.534 11.505 C 174.388 11.554,174.231 11.846,174.185 12.154 C 174.139 12.462,173.908 12.869,173.673 13.058 C 173.437 13.247,173.175 13.634,173.090 13.918 C 173.005 14.201,172.829 14.433,172.698 14.433 C 172.567 14.433,172.519 14.588,172.591 14.777 C 172.664 14.966,172.636 15.120,172.529 15.120 C 172.422 15.120,172.207 15.430,172.050 15.808 C 171.894 16.186,171.675 16.495,171.564 16.495 C 171.454 16.495,171.363 16.600,171.363 16.729 C 171.363 17.008,170.178 18.867,169.930 18.977 C 169.835 19.019,169.819 19.155,169.896 19.279 C 169.972 19.402,169.844 19.659,169.611 19.849 C 169.368 20.047,169.334 20.131,169.530 20.045 C 169.719 19.963,169.633 20.108,169.339 20.367 C 169.045 20.626,168.782 20.990,168.754 21.176 C 168.727 21.361,168.522 21.715,168.298 21.962 C 168.075 22.209,167.867 22.579,167.837 22.785 C 167.807 22.990,167.617 23.352,167.415 23.587 C 167.213 23.823,167.108 24.077,167.182 24.150 C 167.256 24.224,167.195 24.284,167.048 24.284 C 166.901 24.284,166.781 24.490,166.781 24.742 C 166.781 25.005,166.628 25.200,166.424 25.200 C 166.228 25.200,166.131 25.304,166.208 25.430 C 166.286 25.556,166.241 25.659,166.107 25.659 C 165.974 25.659,165.865 25.801,165.865 25.974 C 165.865 26.148,165.713 26.415,165.529 26.569 C 165.344 26.722,165.205 26.916,165.221 26.998 C 165.287 27.349,164.557 28.629,164.381 28.469 C 164.275 28.372,164.247 28.459,164.319 28.661 C 164.397 28.879,164.202 29.296,163.840 29.686 C 163.505 30.048,163.225 30.398,163.219 30.464 C 163.174 30.942,162.813 31.594,162.534 31.701 C 162.350 31.772,162.199 32.016,162.199 32.244 C 162.199 32.472,161.995 32.833,161.746 33.047 C 161.462 33.290,161.348 33.580,161.441 33.823 C 161.542 34.085,161.503 34.157,161.322 34.045 C 161.163 33.947,161.054 34.017,161.054 34.217 C 161.054 34.403,160.946 34.591,160.815 34.635 C 160.683 34.679,160.558 34.938,160.538 35.211 C 160.517 35.484,160.419 35.657,160.319 35.595 C 160.219 35.533,160.137 35.643,160.137 35.840 C 160.137 36.036,160.026 36.197,159.889 36.197 C 159.753 36.197,159.683 36.324,159.735 36.479 C 159.787 36.634,159.588 37.021,159.294 37.338 C 158.999 37.655,158.807 38.044,158.868 38.202 C 158.928 38.359,158.826 38.488,158.641 38.488 C 158.456 38.488,158.305 38.647,158.305 38.841 C 158.305 39.035,158.099 39.416,157.847 39.686 C 157.595 39.957,157.388 40.359,157.388 40.580 C 157.388 40.800,157.275 41.051,157.136 41.137 C 156.997 41.223,156.738 41.641,156.560 42.067 C 156.382 42.493,156.143 42.841,156.029 42.841 C 155.915 42.841,155.753 43.150,155.670 43.528 C 155.587 43.906,155.429 44.215,155.319 44.215 C 155.209 44.215,154.948 44.576,154.738 45.017 C 154.529 45.458,154.267 45.819,154.155 45.819 C 154.043 45.819,153.952 46.025,153.952 46.277 C 153.952 46.529,153.849 46.735,153.723 46.735 C 153.597 46.735,153.494 46.993,153.494 47.308 C 153.494 47.639,153.375 47.857,153.213 47.824 C 153.058 47.792,152.896 47.998,152.853 48.282 C 152.810 48.565,152.673 48.797,152.548 48.797 C 152.423 48.797,152.385 48.900,152.463 49.026 C 152.541 49.152,152.490 49.255,152.350 49.255 C 152.210 49.255,151.988 49.565,151.856 49.942 C 151.724 50.320,151.524 50.573,151.412 50.503 C 151.300 50.434,151.262 50.518,151.328 50.690 C 151.394 50.863,151.198 51.274,150.891 51.604 C 150.585 51.935,150.392 52.263,150.463 52.334 C 150.534 52.405,150.465 52.463,150.311 52.463 C 150.157 52.463,150.090 52.560,150.163 52.678 C 150.237 52.797,150.103 53.080,149.866 53.308 C 149.629 53.536,149.366 54.009,149.282 54.359 C 149.198 54.708,148.926 55.198,148.677 55.447 C 148.428 55.696,148.225 55.995,148.225 56.112 C 148.225 56.229,148.044 56.505,147.824 56.726 C 147.603 56.946,147.418 57.185,147.411 57.257 C 147.373 57.709,147.012 58.419,146.823 58.419 C 146.699 58.419,146.489 58.729,146.357 59.107 C 146.226 59.485,146.025 59.794,145.911 59.794 C 145.797 59.794,145.726 59.871,145.753 59.966 C 145.826 60.228,145.017 61.800,144.652 62.102 C 144.475 62.250,144.330 62.465,144.330 62.580 C 144.330 62.823,143.378 64.226,143.140 64.333 C 143.053 64.373,143.033 64.540,143.096 64.705 C 143.159 64.869,143.050 65.065,142.854 65.141 C 142.658 65.216,142.497 65.493,142.497 65.757 C 142.497 66.020,142.413 66.183,142.310 66.120 C 142.207 66.056,141.986 66.385,141.819 66.851 C 141.652 67.316,141.324 67.943,141.090 68.244 C 140.856 68.544,140.664 68.908,140.664 69.052 C 140.664 69.196,140.358 69.649,139.984 70.058 C 139.610 70.468,139.301 70.852,139.297 70.911 C 139.293 70.971,139.290 71.097,139.290 71.191 C 139.289 71.286,139.034 71.660,138.722 72.023 C 138.410 72.386,138.201 72.759,138.258 72.851 C 138.316 72.944,138.157 73.206,137.907 73.433 C 137.609 73.702,137.500 74.002,137.593 74.294 C 137.691 74.603,137.652 74.691,137.466 74.576 C 137.301 74.474,137.148 74.596,137.071 74.891 C 137.002 75.156,136.843 75.372,136.719 75.372 C 136.594 75.372,136.553 75.532,136.628 75.728 C 136.703 75.923,136.673 76.027,136.560 75.957 C 136.448 75.888,136.248 76.140,136.117 76.518 C 135.985 76.896,135.777 77.205,135.654 77.205 C 135.532 77.205,135.362 77.521,135.277 77.908 C 135.192 78.294,134.972 78.668,134.788 78.739 C 134.603 78.810,134.509 79.015,134.578 79.194 C 134.647 79.374,134.602 79.457,134.476 79.380 C 134.352 79.303,134.250 79.401,134.250 79.597 C 134.250 79.793,134.141 79.954,134.007 79.954 C 133.874 79.954,133.828 80.057,133.906 80.183 C 133.984 80.309,133.938 80.412,133.805 80.412 C 133.672 80.412,133.562 80.622,133.562 80.878 C 133.562 81.134,133.414 81.400,133.233 81.469 C 133.044 81.542,132.963 81.750,133.043 81.958 C 133.129 82.181,133.088 82.262,132.939 82.170 C 132.801 82.085,132.633 82.267,132.552 82.590 C 132.473 82.904,132.301 83.162,132.170 83.162 C 132.039 83.162,131.996 83.265,132.074 83.392 C 132.153 83.519,132.056 83.685,131.859 83.760 C 131.662 83.836,131.501 84.093,131.501 84.331 C 131.501 84.570,131.391 84.765,131.258 84.765 C 131.125 84.765,131.072 84.857,131.142 84.970 C 131.212 85.083,131.115 85.234,130.927 85.307 C 130.738 85.379,130.584 85.583,130.584 85.761 C 130.584 85.938,130.427 86.214,130.235 86.373 C 130.043 86.533,129.937 86.714,129.999 86.777 C 130.061 86.839,129.912 87.171,129.668 87.514 C 129.423 87.858,129.289 88.204,129.369 88.285 C 129.449 88.365,129.405 88.431,129.270 88.431 C 129.136 88.431,128.918 88.740,128.786 89.118 C 128.654 89.496,128.450 89.805,128.333 89.805 C 128.216 89.805,127.992 90.115,127.835 90.493 C 127.678 90.871,127.454 91.180,127.336 91.180 C 127.217 91.180,127.179 91.275,127.251 91.390 C 127.322 91.506,127.248 91.738,127.086 91.906 C 126.923 92.074,126.638 92.520,126.452 92.898 C 125.791 94.240,124.810 95.762,124.606 95.762 C 124.492 95.762,124.399 95.871,124.399 96.004 C 124.399 96.138,124.527 96.182,124.685 96.102 C 124.842 96.022,124.791 96.105,124.570 96.285 C 124.350 96.466,124.170 96.726,124.170 96.864 C 124.170 97.001,124.035 97.196,123.870 97.297 C 123.705 97.398,123.435 97.815,123.269 98.225 C 123.104 98.634,122.878 98.969,122.767 98.969 C 122.656 98.969,122.566 99.124,122.566 99.313 C 122.566 99.502,122.356 99.866,122.099 100.123 C 121.843 100.380,121.694 100.689,121.769 100.810 C 121.844 100.932,121.822 101.031,121.720 101.031 C 121.618 101.032,121.236 101.645,120.871 102.395 C 120.505 103.144,120.067 103.811,119.897 103.876 C 119.727 103.941,119.588 104.204,119.588 104.460 C 119.588 104.716,119.371 105.142,119.106 105.407 C 118.841 105.673,118.606 106.011,118.584 106.159 C 118.562 106.308,118.308 106.761,118.020 107.167 C 117.731 107.572,117.550 107.904,117.618 107.904 C 117.686 107.904,117.486 108.279,117.175 108.738 C 116.864 109.196,116.609 109.666,116.609 109.782 C 116.609 109.898,116.528 109.942,116.429 109.881 C 116.330 109.820,116.106 110.097,115.932 110.498 C 115.758 110.898,115.555 111.277,115.482 111.340 C 115.216 111.570,114.777 112.488,114.777 112.815 C 114.777 112.999,114.596 113.251,114.376 113.375 C 114.155 113.498,114.007 113.632,114.047 113.672 C 114.182 113.810,113.781 114.661,113.502 114.831 C 113.349 114.924,113.158 115.262,113.078 115.581 C 112.998 115.901,112.754 116.359,112.537 116.599 C 111.684 117.540,111.552 117.771,111.709 118.044 C 111.799 118.200,111.787 118.251,111.684 118.157 C 111.510 118.000,111.107 118.523,110.756 119.359 C 110.320 120.395,110.102 120.703,109.895 120.575 C 109.754 120.488,109.715 120.625,109.794 120.927 C 109.865 121.199,109.834 121.366,109.726 121.299 C 109.617 121.232,109.417 121.593,109.280 122.101 C 109.143 122.609,108.927 123.024,108.799 123.024 C 108.672 123.024,108.459 123.333,108.328 123.711 C 108.196 124.089,107.995 124.341,107.881 124.270 C 107.768 124.200,107.675 124.358,107.675 124.621 C 107.675 124.885,107.521 125.159,107.332 125.232 C 107.144 125.304,107.047 125.455,107.117 125.568 C 107.186 125.681,107.134 125.773,107.001 125.773 C 106.867 125.773,106.758 125.976,106.758 126.223 C 106.758 126.471,106.538 126.791,106.269 126.935 C 105.923 127.121,105.861 127.247,106.059 127.370 C 106.265 127.497,106.244 127.579,105.976 127.681 C 105.776 127.758,105.613 127.979,105.613 128.172 C 105.613 128.364,105.518 128.522,105.402 128.522 C 105.285 128.522,105.069 128.890,104.920 129.340 C 104.772 129.789,104.594 130.100,104.524 130.030 C 104.367 129.873,103.780 130.975,103.780 131.426 C 103.780 131.608,103.687 131.699,103.573 131.629 C 103.460 131.559,103.254 131.784,103.115 132.131 C 102.977 132.477,102.616 133.173,102.314 133.677 C 102.011 134.181,101.820 134.687,101.891 134.801 C 101.961 134.915,101.916 134.945,101.792 134.868 C 101.668 134.791,101.349 135.225,101.084 135.833 C 100.819 136.440,100.465 137.080,100.297 137.254 C 100.130 137.429,99.737 138.083,99.424 138.708 C 99.111 139.333,98.674 140.049,98.454 140.298 C 98.233 140.547,98.053 140.938,98.053 141.166 C 98.053 141.394,97.975 141.581,97.880 141.581 C 97.784 141.581,97.558 141.916,97.377 142.325 C 97.038 143.091,96.866 143.343,96.146 144.134 C 95.917 144.385,95.687 144.811,95.635 145.079 C 95.584 145.347,95.385 145.654,95.193 145.762 C 95.002 145.869,94.842 146.132,94.838 146.346 C 94.830 146.776,94.289 147.592,94.122 147.425 C 94.064 147.367,93.879 147.704,93.712 148.173 C 93.544 148.642,93.292 149.100,93.152 149.190 C 93.012 149.280,92.885 149.460,92.869 149.591 C 92.854 149.721,92.828 149.924,92.812 150.041 C 92.796 150.158,92.603 150.434,92.383 150.655 C 92.162 150.875,91.973 151.114,91.961 151.186 C 91.909 151.523,91.436 152.436,91.418 152.234 C 91.408 152.108,91.200 152.443,90.957 152.978 C 90.714 153.514,90.407 153.952,90.275 153.952 C 90.142 153.952,90.055 154.029,90.080 154.124 C 90.162 154.436,89.778 155.326,89.561 155.326 C 89.443 155.326,89.347 155.462,89.347 155.627 C 89.347 155.792,89.136 156.154,88.877 156.432 C 88.619 156.709,88.464 157.027,88.532 157.138 C 88.601 157.249,88.503 157.399,88.315 157.472 C 88.127 157.544,87.973 157.761,87.973 157.954 C 87.973 158.147,87.852 158.305,87.705 158.305 C 87.558 158.305,87.502 158.369,87.580 158.447 C 87.658 158.525,87.474 158.955,87.170 159.402 C 86.867 159.848,86.681 160.316,86.758 160.440 C 86.836 160.567,86.781 160.594,86.633 160.503 C 86.397 160.357,86.266 160.631,86.342 161.111 C 86.357 161.206,86.217 161.283,86.032 161.283 C 85.847 161.283,85.743 161.412,85.801 161.569 C 85.859 161.727,85.613 162.187,85.255 162.592 C 84.848 163.053,84.613 163.568,84.627 163.967 L 84.651 164.605 179.675 164.662 C 258.709 164.710,274.719 164.668,274.816 164.414 C 274.951 164.064,273.846 161.741,273.546 161.741 C 273.436 161.741,273.279 161.432,273.196 161.055 C 273.113 160.678,272.890 160.282,272.699 160.176 C 272.509 160.069,272.357 159.915,272.363 159.834 C 272.387 159.481,271.873 158.305,271.695 158.305 C 271.587 158.305,271.319 157.918,271.099 157.446 C 270.880 156.973,270.610 156.525,270.501 156.449 C 270.391 156.373,270.268 156.167,270.226 155.991 C 270.014 155.092,269.798 154.659,269.508 154.548 C 269.331 154.480,269.187 154.235,269.187 154.003 C 269.187 153.772,268.908 153.246,268.568 152.835 C 268.227 152.424,267.924 151.916,267.893 151.707 C 267.862 151.497,267.728 151.289,267.596 151.245 C 267.463 151.201,267.354 150.961,267.354 150.712 C 267.354 150.463,267.254 150.321,267.132 150.397 C 267.009 150.472,266.841 150.246,266.757 149.895 C 266.674 149.543,266.448 149.075,266.257 148.855 C 266.065 148.634,266.002 148.450,266.116 148.447 C 266.230 148.443,266.140 148.333,265.917 148.203 C 265.694 148.074,265.571 147.871,265.644 147.752 C 265.718 147.634,265.664 147.537,265.527 147.537 C 265.315 147.537,264.434 145.836,264.369 145.301 C 264.357 145.208,264.130 144.900,263.864 144.616 C 263.597 144.333,263.475 144.098,263.591 144.094 C 263.708 144.090,263.623 143.982,263.402 143.853 C 263.182 143.725,263.001 143.419,263.001 143.173 C 263.001 142.927,262.852 142.726,262.671 142.726 C 262.462 142.726,262.373 142.555,262.430 142.262 C 262.479 142.007,262.421 141.858,262.302 141.932 C 262.182 142.006,262.085 141.854,262.085 141.594 C 262.085 141.335,261.976 141.123,261.842 141.123 C 261.709 141.123,261.655 141.033,261.723 140.923 C 261.831 140.748,261.667 140.492,260.728 139.371 C 260.607 139.227,260.571 139.047,260.648 138.971 C 260.724 138.894,260.666 138.832,260.519 138.832 C 260.372 138.832,260.252 138.677,260.252 138.488 C 260.252 138.299,260.152 138.144,260.030 138.144 C 259.908 138.144,259.874 137.973,259.954 137.763 C 260.061 137.485,260.018 137.433,259.794 137.572 C 259.573 137.708,259.526 137.660,259.626 137.399 C 259.706 137.191,259.625 136.983,259.436 136.910 C 259.255 136.841,259.107 136.626,259.107 136.433 C 259.107 136.240,258.992 136.082,258.853 136.082 C 258.713 136.082,258.661 135.922,258.736 135.727 C 258.814 135.523,258.776 135.431,258.646 135.511 C 258.521 135.588,258.419 135.498,258.419 135.311 C 258.419 135.123,258.290 134.830,258.133 134.658 C 257.682 134.168,257.274 133.373,257.274 132.986 C 257.274 132.791,257.124 132.574,256.941 132.504 C 256.758 132.434,256.485 132.003,256.335 131.546 C 256.184 131.090,255.768 130.403,255.410 130.020 C 255.052 129.637,254.865 129.288,254.995 129.245 C 255.125 129.201,255.046 128.995,254.820 128.786 C 254.595 128.578,254.381 128.268,254.345 128.097 C 254.309 127.926,254.128 127.635,253.944 127.450 C 253.628 127.135,253.516 126.807,253.583 126.397 C 253.599 126.299,253.457 126.159,253.267 126.086 C 253.077 126.013,252.921 125.810,252.921 125.634 C 252.921 125.459,252.818 125.315,252.692 125.315 C 252.566 125.315,252.475 125.238,252.490 125.143 C 252.575 124.601,252.422 124.170,252.144 124.170 C 251.851 124.170,251.413 123.162,251.514 122.721 C 251.538 122.617,251.452 122.597,251.323 122.677 C 251.194 122.757,251.088 122.661,251.088 122.465 C 251.088 122.268,250.979 122.108,250.846 122.108 C 250.712 122.108,250.662 122.013,250.733 121.897 C 250.805 121.781,250.719 121.542,250.543 121.366 C 250.367 121.190,249.882 120.435,249.465 119.687 C 249.047 118.939,248.632 118.275,248.541 118.211 C 248.450 118.147,248.304 117.811,248.218 117.466 C 248.131 117.121,247.968 116.838,247.856 116.838 C 247.744 116.838,247.677 116.761,247.708 116.667 C 247.739 116.572,247.482 116.124,247.136 115.671 C 246.789 115.218,246.506 114.753,246.506 114.636 C 246.506 114.520,246.245 114.040,245.925 113.570 C 245.606 113.100,245.416 112.715,245.503 112.715 C 245.590 112.715,245.474 112.509,245.246 112.257 C 245.018 112.005,244.925 111.797,245.039 111.795 C 245.153 111.793,245.143 111.716,245.017 111.623 C 244.620 111.331,243.680 109.891,244.012 110.084 C 244.187 110.186,244.080 109.994,243.774 109.659 C 243.469 109.324,243.314 109.046,243.431 109.042 C 243.547 109.038,243.462 108.930,243.242 108.802 C 243.021 108.673,242.841 108.367,242.841 108.121 C 242.841 107.876,242.740 107.675,242.616 107.675 C 242.492 107.675,242.327 107.417,242.248 107.102 C 242.169 106.787,241.995 106.529,241.861 106.529 C 241.728 106.529,241.688 106.460,241.772 106.376 C 241.856 106.292,241.745 106.023,241.524 105.779 C 241.303 105.535,241.148 105.295,241.180 105.245 C 241.328 105.011,241.213 104.684,241.025 104.801 C 240.830 104.921,240.544 104.357,240.409 103.584 C 240.379 103.414,240.139 103.123,239.875 102.939 C 239.612 102.754,239.455 102.509,239.526 102.395 C 239.646 102.200,238.837 100.859,238.411 100.547 C 238.306 100.470,238.212 100.315,238.202 100.203 C 238.162 99.727,237.404 98.297,237.265 98.436 C 237.182 98.519,237.113 98.427,237.113 98.232 C 237.113 97.837,236.435 96.429,236.419 96.793 C 236.414 96.919,236.268 96.765,236.094 96.452 C 235.921 96.138,235.821 95.814,235.872 95.731 C 235.923 95.648,235.811 95.522,235.623 95.449 C 235.435 95.377,235.281 95.171,235.281 94.992 C 235.281 94.812,235.103 94.597,234.886 94.514 C 234.548 94.384,234.540 94.332,234.829 94.149 C 235.078 93.992,235.087 93.935,234.866 93.932 C 234.701 93.931,234.623 93.837,234.693 93.724 C 234.763 93.611,234.666 93.460,234.477 93.387 C 234.289 93.315,234.135 93.098,234.135 92.905 C 234.135 92.712,234.021 92.554,233.882 92.554 C 233.742 92.554,233.689 92.394,233.764 92.199 C 233.843 91.995,233.804 91.903,233.674 91.983 C 233.550 92.060,233.448 91.920,233.448 91.671 C 233.448 91.422,233.353 91.184,233.236 91.142 C 233.119 91.100,232.991 90.919,232.950 90.741 C 232.909 90.562,232.691 90.223,232.466 89.988 C 232.241 89.752,232.128 89.444,232.215 89.303 C 232.307 89.154,232.270 89.111,232.125 89.200 C 231.986 89.287,231.808 89.127,231.719 88.835 C 231.632 88.550,231.408 88.142,231.222 87.930 C 231.035 87.717,230.951 87.434,231.033 87.300 C 231.116 87.166,231.091 87.056,230.978 87.056 C 230.749 87.056,230.135 85.903,230.206 85.607 C 230.231 85.503,230.156 85.477,230.039 85.550 C 229.835 85.676,229.218 84.391,229.297 84.004 C 229.318 83.900,229.230 83.880,229.101 83.960 C 228.972 84.040,228.866 84.013,228.866 83.902 C 228.866 83.790,228.549 83.219,228.161 82.634 C 227.768 82.040,227.531 81.451,227.624 81.300 C 227.725 81.137,227.693 81.090,227.545 81.181 C 227.401 81.270,227.189 81.000,227.033 80.527 C 226.887 80.084,226.682 79.774,226.578 79.838 C 226.474 79.902,226.447 79.732,226.518 79.460 C 226.602 79.138,226.561 79.020,226.399 79.120 C 226.258 79.206,226.079 79.047,225.988 78.755 C 225.899 78.469,225.711 78.162,225.570 78.073 C 225.430 77.983,225.301 77.828,225.284 77.729 C 225.188 77.165,224.893 76.518,224.732 76.518 C 224.630 76.518,224.364 76.105,224.142 75.601 C 223.920 75.097,223.654 74.685,223.553 74.685 C 223.451 74.685,223.368 74.486,223.368 74.243 C 223.368 74.000,223.218 73.652,223.035 73.469 C 222.852 73.286,222.774 73.064,222.861 72.977 C 222.949 72.889,222.841 72.717,222.621 72.595 C 222.402 72.472,222.222 72.222,222.222 72.039 C 222.222 71.856,222.143 71.707,222.046 71.707 C 221.948 71.707,221.616 71.243,221.306 70.676 C 220.996 70.109,220.657 69.645,220.553 69.645 C 220.448 69.645,220.421 69.550,220.493 69.434 C 220.564 69.318,220.463 69.064,220.267 68.868 C 220.072 68.673,219.798 68.185,219.658 67.785 C 219.519 67.384,219.214 66.865,218.980 66.632 C 218.747 66.399,218.557 66.054,218.557 65.865 C 218.557 65.676,218.448 65.521,218.314 65.521 C 218.181 65.521,218.134 65.419,218.211 65.295 C 218.288 65.171,218.140 64.842,217.881 64.565 C 217.623 64.287,217.411 63.925,217.411 63.760 C 217.411 63.595,217.308 63.459,217.182 63.459 C 217.056 63.459,216.953 63.250,216.953 62.994 C 216.953 62.738,216.792 62.467,216.596 62.392 C 216.400 62.316,216.294 62.113,216.360 61.941 C 216.426 61.768,216.391 61.627,216.281 61.627 C 216.171 61.627,215.974 61.317,215.842 60.939 C 215.710 60.561,215.498 60.252,215.370 60.252 C 215.242 60.252,215.027 59.840,214.891 59.336 C 214.755 58.832,214.555 58.419,214.447 58.419 C 214.338 58.419,214.033 58.052,213.768 57.604 C 213.503 57.155,213.398 56.857,213.533 56.940 C 213.669 57.024,213.644 56.876,213.478 56.610 C 213.313 56.345,213.099 56.128,213.003 56.128 C 212.908 56.128,212.829 55.935,212.829 55.698 C 212.829 55.462,212.675 55.140,212.486 54.983 C 212.297 54.826,212.142 54.552,212.142 54.375 C 212.142 54.197,211.994 53.995,211.813 53.926 C 211.632 53.856,211.540 53.653,211.608 53.475 C 211.677 53.296,211.619 53.150,211.479 53.150 C 211.340 53.150,211.226 53.001,211.226 52.818 C 211.226 52.636,210.968 52.208,210.653 51.868 C 210.338 51.528,210.072 51.188,210.063 51.112 C 209.974 50.414,209.818 50.051,209.423 49.632 C 209.170 49.362,208.930 49.038,208.891 48.912 C 208.852 48.786,208.735 48.711,208.631 48.746 C 208.527 48.780,208.498 48.718,208.567 48.608 C 208.635 48.497,208.543 48.211,208.362 47.972 C 208.181 47.733,208.030 47.351,208.026 47.123 C 208.022 46.895,207.915 46.772,207.789 46.850 C 207.663 46.928,207.560 46.887,207.560 46.759 C 207.560 46.631,207.259 46.016,206.891 45.391 C 206.523 44.767,206.282 44.195,206.356 44.121 C 206.430 44.047,206.319 43.986,206.109 43.986 C 205.885 43.986,205.727 43.804,205.727 43.544 C 205.727 43.301,205.578 42.953,205.395 42.770 C 205.212 42.587,205.133 42.366,205.221 42.278 C 205.308 42.191,205.200 42.019,204.981 41.896 C 204.761 41.773,204.582 41.534,204.582 41.365 C 204.582 41.196,204.427 40.998,204.238 40.925 C 204.049 40.853,203.895 40.600,203.895 40.364 C 203.895 40.127,203.643 39.641,203.335 39.282 C 203.027 38.924,202.823 38.554,202.880 38.461 C 202.938 38.367,202.879 38.225,202.749 38.144 C 202.619 38.064,202.572 37.902,202.644 37.785 C 202.717 37.668,202.662 37.572,202.522 37.572 C 202.382 37.572,202.159 37.262,202.028 36.885 C 201.896 36.507,201.700 36.252,201.593 36.318 C 201.486 36.384,201.439 36.227,201.489 35.968 C 201.539 35.709,201.492 35.552,201.385 35.618 C 201.278 35.684,201.082 35.429,200.951 35.051 C 200.819 34.673,200.603 34.364,200.470 34.364 C 200.338 34.364,200.229 34.200,200.229 33.999 C 200.229 33.798,200.040 33.360,199.808 33.025 C 199.370 32.392,199.001 31.539,199.126 31.448 C 199.166 31.419,198.966 31.232,198.683 31.034 C 198.399 30.835,198.167 30.488,198.167 30.263 C 198.167 30.038,197.915 29.561,197.608 29.202 C 197.300 28.844,197.092 28.479,197.146 28.392 C 197.200 28.304,197.054 27.988,196.821 27.690 C 196.588 27.392,196.324 26.914,196.235 26.629 C 196.146 26.344,195.977 26.169,195.860 26.242 C 195.670 26.359,195.558 26.037,195.704 25.792 C 195.736 25.739,195.522 25.441,195.230 25.129 C 194.774 24.644,194.608 24.279,194.519 23.571 C 194.510 23.493,194.203 23.088,193.838 22.669 C 193.473 22.251,193.226 21.774,193.289 21.609 C 193.352 21.445,193.238 21.246,193.036 21.169 C 192.834 21.091,192.669 20.829,192.669 20.587 C 192.669 20.344,192.514 20.087,192.325 20.014 C 192.136 19.942,191.982 19.729,191.982 19.541 C 191.982 19.354,191.752 18.878,191.472 18.485 C 191.192 18.091,190.947 17.660,190.927 17.527 C 190.908 17.393,190.622 16.886,190.291 16.399 C 189.961 15.913,189.691 15.374,189.691 15.203 C 189.691 15.031,189.585 14.891,189.456 14.891 C 189.327 14.891,189.123 14.632,189.002 14.315 C 188.797 13.777,187.913 12.398,187.607 12.142 C 187.532 12.079,187.403 11.751,187.320 11.413 C 187.238 11.076,187.021 10.650,186.838 10.468 C 186.655 10.285,186.438 9.865,186.355 9.535 C 186.272 9.205,186.110 8.935,185.995 8.935 C 185.879 8.935,185.687 8.677,185.567 8.362 C 185.447 8.047,185.247 7.789,185.122 7.789 C 184.997 7.789,184.959 7.620,185.039 7.412 C 185.128 7.180,185.016 6.913,184.745 6.715 C 184.504 6.539,184.294 6.296,184.278 6.176 C 184.263 6.055,184.237 5.825,184.221 5.664 C 184.205 5.503,183.882 5.031,183.502 4.616 C 183.123 4.200,182.864 3.776,182.928 3.672 C 182.992 3.569,182.892 3.426,182.706 3.355 C 182.520 3.283,182.423 3.079,182.491 2.902 C 182.559 2.724,182.448 2.515,182.244 2.437 C 182.040 2.358,181.937 2.190,182.016 2.062 C 182.095 1.934,181.998 1.768,181.801 1.692 C 181.604 1.616,181.443 1.359,181.443 1.121 C 181.443 0.882,181.289 0.687,181.100 0.687 C 180.911 0.687,180.774 0.765,180.796 0.859 M14.433 184.255 C 13.488 184.352,12.483 184.442,12.199 184.455 C 11.916 184.468,11.684 184.556,11.684 184.651 C 11.684 184.812,11.041 184.995,9.561 185.255 C 9.213 185.316,8.663 185.611,8.340 185.911 C 8.017 186.211,7.600 186.396,7.413 186.325 C 7.216 186.249,6.929 186.399,6.731 186.682 C 6.543 186.951,6.256 187.171,6.093 187.171 C 5.931 187.171,5.560 187.377,5.269 187.629 C 4.979 187.881,4.651 188.087,4.542 188.087 C 4.433 188.087,4.227 188.342,4.085 188.653 C 3.944 188.964,3.740 189.164,3.632 189.097 C 3.524 189.031,3.436 189.138,3.436 189.336 C 3.436 189.533,3.230 189.872,2.978 190.088 C 2.726 190.303,2.520 190.663,2.520 190.887 C 2.520 191.111,2.417 191.294,2.291 191.294 C 2.165 191.294,2.062 191.449,2.062 191.638 C 2.062 191.827,1.947 191.982,1.806 191.982 C 1.663 191.982,1.603 192.184,1.670 192.440 C 1.736 192.692,1.717 192.898,1.629 192.898 C 0.499 192.898,1.392 199.885,2.775 201.859 C 3.005 202.188,3.128 202.523,3.048 202.603 C 2.968 202.683,3.022 202.749,3.169 202.749 C 3.316 202.749,3.436 202.886,3.436 203.054 C 3.436 203.222,3.691 203.495,4.001 203.661 C 4.312 203.828,4.522 204.036,4.467 204.124 C 4.413 204.212,4.648 204.428,4.991 204.605 C 5.333 204.781,5.748 205.106,5.912 205.326 C 6.077 205.547,6.458 205.727,6.760 205.727 C 7.062 205.727,7.391 205.875,7.491 206.055 C 7.592 206.235,7.726 206.374,7.789 206.365 C 8.125 206.314,8.924 206.704,8.822 206.869 C 8.757 206.975,8.879 207.036,9.094 207.004 C 9.308 206.973,9.747 207.084,10.068 207.252 C 10.390 207.420,10.891 207.558,11.182 207.559 C 11.473 207.560,11.659 207.644,11.595 207.748 C 11.531 207.851,11.757 207.947,12.097 207.961 C 12.437 207.976,12.869 208.032,13.058 208.086 C 13.247 208.139,13.840 208.262,14.376 208.359 C 14.911 208.456,15.349 208.625,15.349 208.735 C 15.349 208.845,15.459 208.935,15.592 208.935 C 15.725 208.935,15.757 208.806,15.663 208.648 C 15.540 208.444,15.599 208.450,15.868 208.668 C 16.076 208.836,16.353 208.908,16.485 208.826 C 16.616 208.745,16.724 208.788,16.724 208.921 C 16.724 209.055,16.801 209.144,16.896 209.119 C 17.258 209.024,19.702 209.434,19.702 209.589 C 19.702 209.679,19.883 209.770,20.103 209.792 C 21.213 209.899,23.236 210.487,23.316 210.726 C 23.365 210.875,23.588 210.997,23.810 210.997 C 24.032 210.997,24.455 211.206,24.749 211.461 C 25.044 211.716,25.523 211.985,25.814 212.058 C 26.105 212.131,26.289 212.278,26.223 212.384 C 26.158 212.490,26.313 212.689,26.569 212.826 C 26.824 212.963,27.033 213.226,27.033 213.410 C 27.033 213.595,27.136 213.746,27.262 213.746 C 27.388 213.746,27.491 214.003,27.491 214.318 C 27.491 214.633,27.595 214.891,27.721 214.891 C 27.853 214.891,27.950 215.617,27.950 216.609 C 27.950 217.602,27.853 218.328,27.721 218.328 C 27.595 218.328,27.491 218.585,27.491 218.900 C 27.491 219.215,27.388 219.473,27.262 219.473 C 27.136 219.473,27.033 219.679,27.033 219.931 C 27.033 220.198,26.880 220.389,26.668 220.389 C 26.467 220.389,26.249 220.596,26.183 220.848 C 26.117 221.100,25.972 221.319,25.861 221.334 C 25.750 221.350,25.552 221.376,25.421 221.392 C 25.291 221.408,25.109 221.541,25.018 221.689 C 24.927 221.836,24.570 222.028,24.225 222.114 C 23.879 222.201,23.597 222.370,23.597 222.490 C 23.597 222.609,23.494 222.644,23.368 222.566 C 23.242 222.488,23.139 222.521,23.139 222.640 C 23.139 222.759,22.443 222.935,21.592 223.031 C 20.028 223.207,19.816 223.237,18.270 223.501 C 17.771 223.586,17.411 223.555,17.411 223.426 C 17.411 223.305,16.618 223.139,15.649 223.057 C 14.679 222.975,13.816 222.793,13.729 222.654 C 13.621 222.478,13.534 222.496,13.448 222.712 C 13.365 222.921,13.318 222.932,13.306 222.745 C 13.295 222.581,13.131 222.526,12.906 222.612 C 12.658 222.707,12.580 222.669,12.684 222.502 C 12.784 222.339,12.544 222.189,12.023 222.092 C 11.573 222.007,11.264 221.879,11.337 221.806 C 11.410 221.733,11.270 221.565,11.027 221.432 C 9.790 220.757,7.187 217.829,7.449 217.406 C 7.525 217.283,7.486 217.182,7.363 217.182 C 7.239 217.182,7.070 216.873,6.987 216.495 C 6.904 216.117,6.740 215.808,6.621 215.808 C 6.503 215.808,6.455 215.538,6.514 215.208 C 6.574 214.878,6.499 214.489,6.347 214.343 C 6.032 214.041,4.353 213.916,4.353 214.195 C 4.353 214.296,3.554 214.449,2.577 214.535 C 0.050 214.757,-0.000 214.781,0.001 215.766 C 0.002 216.548,0.296 217.976,0.621 218.786 C 0.697 218.975,0.736 219.269,0.708 219.439 C 0.680 219.609,0.751 219.690,0.867 219.618 C 0.982 219.547,1.216 219.769,1.387 220.111 C 1.557 220.453,1.743 220.826,1.800 220.940 C 1.857 221.054,1.785 221.074,1.639 220.984 C 1.227 220.729,1.324 220.947,1.947 221.671 C 2.262 222.037,2.520 222.466,2.520 222.623 C 2.520 222.781,2.631 222.910,2.766 222.910 C 3.167 222.910,3.596 223.461,3.481 223.828 C 3.422 224.016,3.450 224.098,3.544 224.011 C 3.751 223.820,4.348 224.328,4.201 224.570 C 4.143 224.665,4.239 224.742,4.413 224.742 C 4.586 224.742,5.075 225.052,5.498 225.430 C 5.922 225.808,6.393 226.117,6.546 226.117 C 6.699 226.117,6.883 226.271,6.956 226.460 C 7.028 226.649,7.233 226.804,7.410 226.804 C 7.588 226.804,7.859 226.955,8.012 227.140 C 8.166 227.325,8.359 227.463,8.441 227.447 C 8.524 227.431,8.881 227.537,9.236 227.684 C 9.591 227.830,10.086 227.950,10.338 227.950 C 10.628 227.950,10.734 228.047,10.629 228.218 C 10.518 228.397,10.587 228.438,10.839 228.342 C 11.045 228.262,11.588 228.353,12.044 228.544 C 13.219 229.035,19.251 229.246,21.772 228.884 C 25.143 228.400,25.312 228.366,25.446 228.150 C 25.519 228.034,25.815 227.893,26.105 227.837 C 26.395 227.782,26.890 227.567,27.204 227.361 C 27.526 227.150,27.700 227.110,27.601 227.270 C 27.505 227.426,27.776 227.308,28.203 227.007 C 28.631 226.706,29.015 226.383,29.057 226.289 C 29.099 226.194,29.242 226.117,29.375 226.117 C 29.508 226.117,29.765 225.936,29.946 225.716 C 30.127 225.495,30.209 225.444,30.129 225.601 C 30.050 225.759,30.028 225.888,30.081 225.888 C 30.316 225.888,32.532 223.544,32.532 223.295 C 32.532 223.144,32.785 222.746,33.095 222.412 C 33.405 222.078,33.725 221.538,33.807 221.211 C 33.889 220.885,34.052 220.619,34.170 220.619 C 34.288 220.619,34.362 220.490,34.334 220.332 C 34.307 220.175,34.417 219.582,34.580 219.015 C 34.964 217.677,34.799 212.640,34.363 212.370 C 34.201 212.270,34.129 212.031,34.203 211.838 C 34.277 211.646,34.189 211.365,34.007 211.214 C 33.825 211.064,33.677 210.795,33.677 210.617 C 33.677 210.439,33.363 209.986,32.978 209.611 C 32.594 209.235,32.342 208.826,32.419 208.702 C 32.496 208.578,32.398 208.477,32.201 208.477 C 32.005 208.477,31.844 208.373,31.844 208.247 C 31.844 208.121,31.696 208.018,31.514 208.018 C 31.333 208.018,31.121 207.916,31.044 207.792 C 30.963 207.660,31.077 207.618,31.317 207.692 C 31.544 207.761,31.420 207.641,31.042 207.424 C 30.664 207.207,30.219 206.865,30.052 206.665 C 29.885 206.464,29.820 206.440,29.908 206.610 C 30.017 206.822,29.878 206.796,29.467 206.527 C 29.136 206.310,28.866 206.042,28.866 205.930 C 28.866 205.819,28.733 205.727,28.571 205.727 C 28.408 205.727,27.894 205.533,27.428 205.295 C 26.962 205.057,26.648 204.980,26.732 205.123 C 26.815 205.267,26.641 205.178,26.346 204.926 C 26.051 204.674,25.882 204.592,25.970 204.744 C 26.079 204.930,25.922 204.911,25.494 204.688 C 25.144 204.505,24.671 204.355,24.445 204.354 C 24.218 204.353,23.754 204.213,23.414 204.041 C 23.073 203.870,22.334 203.659,21.771 203.572 C 21.208 203.486,20.659 203.291,20.551 203.139 C 20.399 202.926,20.329 202.927,20.240 203.147 C 20.150 203.368,19.991 203.362,19.512 203.119 C 19.176 202.947,18.309 202.736,17.587 202.648 C 16.864 202.560,16.213 202.391,16.140 202.272 C 16.066 202.154,15.730 202.072,15.392 202.091 C 15.053 202.109,14.493 202.010,14.147 201.870 C 13.800 201.730,13.517 201.668,13.517 201.732 C 13.517 201.796,13.285 201.720,13.001 201.563 C 12.718 201.405,12.431 201.273,12.364 201.268 C 12.035 201.246,10.319 200.372,10.415 200.276 C 10.476 200.215,10.198 199.989,9.796 199.774 C 9.319 199.518,9.001 199.130,8.877 198.652 C 8.773 198.250,8.594 197.980,8.480 198.051 C 8.365 198.122,8.311 197.973,8.360 197.720 C 8.409 197.467,8.352 197.201,8.233 197.128 C 8.115 197.055,8.018 196.428,8.018 195.735 C 8.018 194.953,8.105 194.528,8.247 194.616 C 8.373 194.694,8.477 194.539,8.477 194.271 C 8.477 193.323,9.336 192.176,10.268 191.880 C 10.541 191.793,10.894 191.599,11.052 191.448 C 11.529 190.994,12.668 190.312,12.502 190.581 C 12.405 190.737,12.481 190.780,12.703 190.695 C 12.898 190.619,13.058 190.486,13.058 190.398 C 13.058 189.932,20.770 189.882,21.057 190.347 C 21.159 190.511,21.308 190.637,21.389 190.627 C 21.469 190.616,21.561 190.615,21.592 190.625 C 21.624 190.634,21.839 190.678,22.070 190.722 C 22.302 190.766,22.671 190.964,22.890 191.163 C 23.110 191.361,23.459 191.523,23.667 191.523 C 23.875 191.523,24.213 191.780,24.418 192.094 C 24.624 192.408,24.858 192.625,24.939 192.576 C 25.090 192.486,25.627 192.979,25.721 193.294 C 25.750 193.391,25.844 193.447,25.931 193.418 C 26.018 193.389,26.160 193.595,26.246 193.876 C 26.332 194.157,26.581 194.558,26.800 194.767 C 27.018 194.975,27.266 195.578,27.350 196.107 C 27.476 196.890,27.562 197.019,27.821 196.804 C 28.038 196.624,28.185 196.617,28.286 196.782 C 28.368 196.914,28.609 197.020,28.822 197.018 C 29.117 197.016,29.138 196.969,28.909 196.824 C 28.724 196.707,29.300 196.568,30.398 196.465 C 31.382 196.373,32.497 196.266,32.875 196.227 C 33.253 196.189,33.743 196.146,33.963 196.131 C 34.184 196.117,34.364 195.945,34.364 195.748 C 34.364 195.552,34.272 195.448,34.160 195.517 C 34.048 195.587,33.903 195.309,33.837 194.901 C 33.550 193.100,33.382 192.556,33.026 192.285 C 32.817 192.126,32.739 191.993,32.853 191.989 C 32.967 191.985,32.874 191.775,32.646 191.523 C 32.418 191.271,32.303 191.065,32.391 191.065 C 32.478 191.065,32.289 190.782,31.971 190.435 C 29.844 188.122,29.095 187.357,29.095 187.499 C 29.095 187.587,28.656 187.300,28.120 186.861 C 27.584 186.422,26.837 185.988,26.459 185.898 C 26.082 185.808,25.619 185.605,25.430 185.447 C 25.241 185.288,24.622 185.083,24.055 184.991 C 23.488 184.899,22.968 184.736,22.900 184.629 C 22.634 184.212,17.190 183.971,14.433 184.255 M130.241 184.226 C 128.472 184.389,128.006 184.473,127.835 184.663 C 127.723 184.787,125.704 185.331,125.153 185.387 C 125.001 185.402,124.821 185.558,124.754 185.734 C 124.686 185.910,124.534 185.994,124.416 185.921 C 124.298 185.848,124.135 185.895,124.055 186.025 C 123.975 186.155,123.813 186.202,123.696 186.130 C 123.578 186.057,123.482 186.107,123.482 186.241 C 123.482 186.374,123.405 186.458,123.310 186.428 C 123.156 186.377,121.651 187.223,121.077 187.683 C 120.190 188.394,119.529 189.031,119.817 188.899 C 120.033 188.799,120.012 188.862,119.759 189.069 C 119.539 189.250,119.359 189.521,119.359 189.672 C 119.359 189.824,119.238 189.872,119.091 189.781 C 118.909 189.669,118.871 189.742,118.973 190.009 C 119.056 190.225,119.030 190.344,118.914 190.272 C 118.799 190.201,118.638 190.351,118.557 190.607 C 118.476 190.863,118.331 191.024,118.236 190.965 C 118.141 190.906,117.932 191.523,117.770 192.335 C 117.609 193.147,117.390 193.758,117.285 193.693 C 117.179 193.627,117.103 194.659,117.116 195.985 C 117.128 197.311,117.225 198.396,117.332 198.396 C 117.439 198.396,117.526 198.750,117.526 199.182 C 117.526 199.614,117.690 200.132,117.892 200.333 C 118.093 200.534,118.203 200.841,118.136 201.015 C 118.069 201.189,118.212 201.510,118.452 201.727 C 118.693 201.945,118.834 202.212,118.767 202.322 C 118.699 202.431,118.798 202.520,118.986 202.520 C 119.174 202.520,119.401 202.752,119.490 203.036 C 119.684 203.650,120.513 204.572,120.877 204.578 C 121.019 204.580,121.307 204.814,121.518 205.097 C 121.728 205.381,121.826 205.458,121.735 205.269 C 121.601 204.990,121.653 204.995,122.011 205.299 C 122.253 205.505,122.685 205.744,122.970 205.831 C 123.255 205.918,123.428 206.088,123.354 206.208 C 123.280 206.328,123.304 206.403,123.408 206.375 C 123.727 206.289,124.719 206.678,125.183 207.072 C 125.425 207.277,125.548 207.317,125.455 207.159 C 125.363 207.002,125.397 206.873,125.531 206.873 C 125.664 206.873,125.773 206.976,125.773 207.102 C 125.773 207.228,125.956 207.331,126.180 207.331 C 126.404 207.331,126.834 207.504,127.135 207.714 C 127.534 207.994,127.629 208.009,127.485 207.772 C 127.323 207.501,127.350 207.495,127.647 207.736 C 127.845 207.896,128.163 207.966,128.356 207.892 C 128.548 207.818,128.771 207.865,128.852 207.996 C 128.933 208.127,129.511 208.302,130.135 208.385 C 130.760 208.468,131.271 208.625,131.271 208.734 C 131.271 208.843,131.632 208.886,132.073 208.829 C 132.514 208.773,132.875 208.825,132.875 208.945 C 132.875 209.065,132.952 209.143,133.047 209.118 C 133.424 209.019,135.393 209.433,135.520 209.639 C 135.595 209.760,135.756 209.796,135.879 209.721 C 136.002 209.645,136.251 209.706,136.433 209.857 C 136.615 210.008,136.920 210.072,137.110 209.998 C 137.301 209.925,137.457 209.952,137.457 210.059 C 137.457 210.270,138.758 210.627,139.256 210.554 C 139.426 210.528,139.497 210.618,139.414 210.752 C 139.322 210.901,139.489 210.997,139.838 210.997 C 140.154 210.997,140.513 211.176,140.636 211.396 C 140.759 211.615,140.927 211.727,141.010 211.644 C 141.185 211.468,142.039 212.262,142.039 212.600 C 142.039 212.726,142.183 212.829,142.358 212.829 C 142.665 212.829,143.067 213.447,142.992 213.803 C 142.972 213.897,143.058 213.975,143.184 213.975 C 143.310 213.975,143.414 214.129,143.414 214.318 C 143.414 214.507,143.507 214.662,143.622 214.662 C 143.737 214.662,143.802 214.842,143.766 215.063 C 143.731 215.284,143.805 215.594,143.932 215.753 C 144.189 216.077,143.992 218.021,143.662 218.419 C 143.547 218.558,143.459 218.723,143.467 218.786 C 143.512 219.154,143.118 219.917,142.939 219.807 C 142.822 219.734,142.726 219.839,142.726 220.039 C 142.726 220.240,142.572 220.463,142.384 220.535 C 142.196 220.607,142.093 220.751,142.157 220.853 C 142.220 220.956,141.910 221.159,141.468 221.305 C 141.026 221.451,140.664 221.666,140.664 221.782 C 140.664 221.898,140.568 221.993,140.450 221.993 C 140.332 221.993,139.946 222.113,139.591 222.260 C 139.236 222.407,138.895 222.545,138.832 222.566 C 138.769 222.587,138.427 222.724,138.072 222.871 C 137.717 223.018,136.815 223.139,136.068 223.139 C 135.224 223.139,134.708 223.235,134.708 223.393 C 134.708 223.559,134.412 223.597,133.849 223.502 C 133.376 223.422,132.277 223.261,131.406 223.143 C 130.534 223.026,129.746 222.807,129.653 222.657 C 129.561 222.507,129.330 222.444,129.140 222.517 C 128.951 222.589,128.606 222.505,128.373 222.328 C 128.140 222.152,127.763 222.004,127.535 222.000 C 127.307 221.996,127.184 221.890,127.262 221.764 C 127.340 221.638,127.295 221.535,127.161 221.535 C 127.028 221.535,126.841 221.510,126.747 221.480 C 126.408 221.372,123.688 218.504,123.809 218.383 C 123.877 218.314,123.776 218.143,123.583 218.002 C 123.390 217.861,123.215 217.516,123.194 217.235 C 123.173 216.954,123.057 216.724,122.937 216.724 C 122.817 216.724,122.786 216.656,122.869 216.573 C 122.952 216.490,122.928 216.310,122.815 216.172 C 122.703 216.035,122.493 215.483,122.350 214.946 C 122.118 214.080,120.733 213.445,120.733 214.204 C 120.733 214.276,120.501 214.351,120.218 214.369 C 119.934 214.387,119.032 214.472,118.213 214.557 C 117.394 214.641,116.672 214.710,116.609 214.709 C 115.956 214.699,115.669 215.212,115.824 216.111 C 115.916 216.637,115.992 217.196,115.994 217.354 C 115.997 217.511,116.075 217.640,116.168 217.640 C 116.261 217.640,116.287 217.872,116.224 218.156 C 116.143 218.528,116.172 218.586,116.331 218.362 C 116.497 218.128,116.578 218.213,116.660 218.705 C 116.837 219.754,116.929 219.983,117.362 220.436 C 117.587 220.672,117.717 220.952,117.651 221.059 C 117.585 221.166,117.683 221.380,117.869 221.535 C 118.056 221.689,118.142 221.923,118.061 222.054 C 117.980 222.186,118.021 222.226,118.154 222.144 C 118.388 221.999,118.786 222.608,118.702 222.984 C 118.679 223.088,118.750 223.117,118.860 223.049 C 118.970 222.981,119.196 223.179,119.363 223.490 C 119.529 223.801,119.795 224.055,119.955 224.055 C 120.114 224.055,120.310 224.263,120.391 224.516 C 120.471 224.770,120.625 224.923,120.733 224.857 C 120.841 224.790,120.996 224.945,121.077 225.200 C 121.158 225.456,121.320 225.606,121.437 225.534 C 121.554 225.462,121.649 225.510,121.649 225.641 C 121.649 225.772,121.907 225.944,122.221 226.022 C 122.535 226.101,122.738 226.253,122.672 226.359 C 122.606 226.466,122.969 226.677,123.478 226.830 C 123.987 226.983,124.519 227.245,124.658 227.414 C 124.798 227.583,125.084 227.721,125.292 227.721 C 125.501 227.721,125.901 227.881,126.181 228.077 C 126.461 228.274,126.791 228.372,126.914 228.296 C 127.038 228.220,127.342 228.267,127.591 228.400 C 128.584 228.931,135.870 229.224,138.259 228.829 C 138.763 228.745,139.664 228.603,140.261 228.512 C 140.858 228.421,141.464 228.205,141.606 228.033 C 141.749 227.861,142.105 227.721,142.397 227.721 C 142.689 227.721,142.993 227.616,143.072 227.488 C 143.151 227.360,143.312 227.314,143.429 227.387 C 143.547 227.459,143.643 227.417,143.643 227.294 C 143.643 227.170,144.004 226.949,144.447 226.803 C 144.889 226.657,145.201 226.458,145.141 226.361 C 145.028 226.179,146.142 225.547,146.449 225.619 C 146.544 225.641,146.621 225.498,146.621 225.301 C 146.621 225.105,146.724 225.008,146.850 225.086 C 146.977 225.164,147.186 224.950,147.315 224.610 C 147.444 224.270,147.611 224.052,147.685 224.127 C 147.854 224.296,148.315 223.843,148.517 223.310 C 148.600 223.090,148.775 222.910,148.905 222.910 C 149.035 222.910,149.141 222.779,149.141 222.620 C 149.141 222.460,149.357 221.926,149.622 221.433 C 149.886 220.939,150.150 220.273,150.209 219.952 C 150.267 219.631,150.388 219.315,150.479 219.249 C 150.569 219.183,150.626 218.872,150.605 218.557 C 150.584 218.242,150.626 217.886,150.698 217.765 C 150.813 217.575,150.812 216.756,150.695 213.584 C 150.680 213.180,150.582 212.903,150.477 212.967 C 150.372 213.032,150.285 212.899,150.283 212.671 C 150.278 212.073,149.704 210.510,149.547 210.667 C 149.473 210.740,149.344 210.483,149.259 210.095 C 149.173 209.706,149.020 209.440,148.918 209.503 C 148.816 209.566,148.562 209.258,148.353 208.818 C 148.145 208.378,147.824 208.018,147.641 208.018 C 147.458 208.018,147.308 207.922,147.308 207.805 C 147.308 207.687,147.113 207.529,146.875 207.454 C 146.638 207.378,146.148 207.059,145.787 206.744 C 144.619 205.726,143.934 205.272,144.191 205.687 C 144.345 205.937,142.962 205.302,142.726 205.015 C 142.614 204.879,139.978 204.127,139.286 204.034 C 139.095 204.008,138.837 203.927,138.713 203.853 C 138.589 203.779,138.050 203.646,137.514 203.557 C 136.979 203.469,136.541 203.305,136.541 203.194 C 136.541 203.083,136.386 203.052,136.197 203.124 C 136.008 203.197,135.673 203.177,135.452 203.080 C 135.232 202.983,134.897 202.887,134.708 202.866 C 133.440 202.730,132.208 202.443,132.295 202.303 C 132.351 202.213,132.066 202.126,131.662 202.112 C 130.532 202.072,128.751 201.594,128.751 201.332 C 128.751 201.202,128.597 201.156,128.408 201.228 C 128.219 201.301,128.064 201.272,128.064 201.163 C 128.064 201.055,127.806 200.901,127.491 200.822 C 127.176 200.743,126.919 200.577,126.919 200.454 C 126.919 200.330,126.766 200.229,126.579 200.229 C 126.229 200.229,124.437 198.628,124.780 198.622 C 124.885 198.620,124.868 198.543,124.742 198.450 C 124.293 198.120,123.646 195.829,123.949 195.642 C 124.103 195.547,124.162 195.362,124.081 195.232 C 123.903 194.943,124.378 193.813,124.854 193.397 C 125.158 193.130,125.158 193.112,124.857 193.243 C 124.668 193.326,124.790 193.138,125.129 192.826 C 125.467 192.513,125.687 192.201,125.617 192.131 C 125.547 192.061,125.760 191.936,126.090 191.853 C 126.420 191.771,126.690 191.605,126.690 191.485 C 126.690 191.365,126.782 191.324,126.895 191.394 C 127.007 191.464,127.159 191.367,127.231 191.179 C 127.303 190.990,127.572 190.836,127.828 190.836 C 128.084 190.836,128.293 190.727,128.293 190.594 C 128.293 190.460,128.401 190.417,128.532 190.499 C 128.664 190.580,128.930 190.515,129.123 190.355 C 129.717 189.862,136.999 189.941,136.999 190.440 C 136.999 190.547,137.092 190.576,137.206 190.506 C 137.424 190.371,139.807 191.507,139.939 191.808 C 139.981 191.903,140.098 191.982,140.198 191.982 C 140.854 191.982,143.142 194.872,142.986 195.504 C 142.959 195.614,143.105 195.891,143.312 196.120 C 143.518 196.348,143.631 196.626,143.562 196.738 C 143.422 196.964,144.378 196.990,144.559 196.765 C 144.622 196.687,145.498 196.554,146.506 196.469 C 147.514 196.384,148.545 196.275,148.797 196.228 C 149.049 196.180,149.436 196.133,149.656 196.123 C 150.084 196.104,150.266 194.731,149.841 194.731 C 149.723 194.731,149.665 194.525,149.714 194.273 C 149.762 194.021,149.705 193.814,149.586 193.814 C 149.467 193.814,149.370 193.608,149.370 193.356 C 149.370 193.104,149.284 192.898,149.179 192.898 C 149.074 192.898,148.984 192.769,148.979 192.612 C 148.960 192.012,148.782 191.624,148.339 191.218 C 148.087 190.987,147.877 190.729,147.873 190.645 C 147.854 190.294,147.176 189.462,146.909 189.462 C 146.751 189.462,146.621 189.318,146.621 189.142 C 146.621 188.967,146.460 188.762,146.263 188.686 C 146.053 188.606,145.973 188.429,146.070 188.260 C 146.162 188.102,146.156 188.045,146.058 188.133 C 145.959 188.222,145.748 188.170,145.588 188.019 C 144.892 187.359,144.346 186.978,143.893 186.834 C 143.626 186.749,143.455 186.601,143.515 186.505 C 143.574 186.409,143.498 186.319,143.346 186.305 C 142.771 186.251,141.352 185.676,141.352 185.497 C 141.352 185.395,141.249 185.375,141.123 185.452 C 140.997 185.530,140.893 185.491,140.893 185.365 C 140.893 185.240,140.431 185.067,139.865 184.983 C 139.299 184.898,138.884 184.751,138.943 184.656 C 139.001 184.561,138.768 184.485,138.425 184.486 C 138.082 184.487,137.635 184.416,137.433 184.329 C 136.932 184.111,132.215 184.044,130.241 184.226 M376.632 184.143 C 376.065 184.178,375.447 184.270,375.258 184.347 C 375.069 184.424,374.619 184.464,374.258 184.434 C 373.897 184.405,373.660 184.474,373.730 184.588 C 373.800 184.701,373.244 184.920,372.495 185.075 C 371.747 185.229,371.134 185.430,371.134 185.520 C 371.134 185.611,370.696 185.821,370.160 185.987 C 369.625 186.154,368.864 186.535,368.470 186.835 C 368.076 187.135,367.673 187.307,367.575 187.218 C 367.476 187.129,367.462 187.174,367.544 187.317 C 367.627 187.462,367.414 187.758,367.066 187.982 C 366.034 188.645,364.776 190.075,364.463 190.941 C 364.301 191.387,364.087 191.753,363.986 191.753 C 363.885 191.753,363.826 191.830,363.854 191.924 C 363.883 192.019,363.773 192.563,363.610 193.134 C 363.411 193.830,363.350 195.000,363.425 196.685 C 363.573 200.003,363.569 199.970,363.821 200.126 C 363.941 200.200,363.980 200.357,363.908 200.474 C 363.835 200.591,363.877 200.687,364.001 200.687 C 364.124 200.687,364.342 201.040,364.484 201.470 C 364.626 201.901,364.998 202.421,365.311 202.626 C 365.624 202.831,365.828 203.081,365.765 203.183 C 365.703 203.284,365.902 203.502,366.208 203.666 C 366.515 203.830,366.723 204.032,366.671 204.116 C 366.619 204.200,366.881 204.448,367.252 204.667 C 367.623 204.887,367.927 205.169,367.927 205.296 C 367.927 205.422,368.014 205.471,368.121 205.405 C 368.228 205.339,368.512 205.465,368.751 205.685 C 368.991 205.905,369.628 206.216,370.167 206.376 C 370.706 206.535,371.087 206.763,371.014 206.881 C 370.941 207.000,371.041 207.035,371.237 206.960 C 371.432 206.885,371.592 206.942,371.592 207.087 C 371.592 207.232,371.721 207.330,371.879 207.304 C 372.337 207.228,373.425 207.590,373.425 207.819 C 373.425 207.933,373.699 207.978,374.034 207.917 C 374.368 207.856,374.755 207.877,374.893 207.963 C 375.030 208.049,375.349 208.156,375.601 208.202 C 375.853 208.247,376.214 208.319,376.403 208.362 C 376.592 208.406,376.985 208.449,377.276 208.459 C 377.567 208.469,377.742 208.578,377.665 208.702 C 377.581 208.838,377.805 208.896,378.224 208.847 C 378.609 208.802,378.923 208.838,378.923 208.927 C 378.923 209.015,379.052 209.097,379.210 209.108 C 380.512 209.204,381.868 209.491,381.770 209.650 C 381.703 209.757,381.964 209.808,382.348 209.763 C 382.732 209.719,383.047 209.763,383.047 209.861 C 383.047 209.959,383.459 210.110,383.963 210.195 C 384.467 210.280,384.880 210.451,384.880 210.574 C 384.880 210.698,385.096 210.730,385.367 210.644 C 385.727 210.529,385.807 210.565,385.673 210.782 C 385.547 210.986,385.600 211.033,385.848 210.938 C 386.046 210.862,386.419 211.001,386.687 211.251 C 386.953 211.499,387.174 211.620,387.178 211.521 C 387.181 211.422,387.291 211.523,387.421 211.746 C 387.551 211.969,387.746 212.096,387.856 212.029 C 387.965 211.962,388.119 212.111,388.199 212.362 C 388.278 212.612,388.648 213.034,389.020 213.299 C 389.392 213.564,389.642 213.869,389.575 213.976 C 389.509 214.084,389.563 214.240,389.696 214.322 C 389.829 214.404,389.879 214.660,389.805 214.891 C 389.732 215.122,389.779 215.377,389.910 215.458 C 390.216 215.647,390.223 217.567,389.919 217.755 C 389.793 217.834,389.756 218.164,389.838 218.490 C 389.952 218.946,389.917 219.040,389.685 218.897 C 389.470 218.764,389.424 218.815,389.523 219.075 C 389.613 219.309,389.464 219.569,389.104 219.805 C 388.797 220.006,388.545 220.326,388.545 220.516 C 388.545 220.707,388.365 220.928,388.144 221.008 C 387.924 221.088,387.294 221.459,386.744 221.831 C 386.195 222.204,385.501 222.509,385.202 222.509 C 384.903 222.509,384.715 222.599,384.783 222.709 C 384.851 222.819,384.720 222.917,384.492 222.927 C 384.264 222.937,383.872 222.989,383.620 223.043 C 383.368 223.096,382.672 223.150,382.073 223.162 C 381.475 223.173,381.043 223.276,381.113 223.390 C 381.284 223.665,379.713 223.656,379.207 223.379 C 378.988 223.259,378.113 223.096,377.262 223.017 C 376.412 222.938,375.716 222.778,375.716 222.662 C 375.716 222.546,375.633 222.477,375.533 222.509 C 375.268 222.591,373.654 221.938,373.654 221.748 C 373.654 221.589,372.767 221.238,372.464 221.277 C 372.377 221.288,372.107 221.045,371.865 220.736 C 371.622 220.428,371.359 220.241,371.279 220.321 C 371.199 220.401,371.134 220.320,371.134 220.141 C 371.134 219.963,370.776 219.415,370.339 218.924 C 369.902 218.433,369.606 217.932,369.681 217.810 C 369.757 217.689,369.720 217.523,369.599 217.443 C 369.186 217.168,368.654 215.818,368.775 215.354 C 368.842 215.100,368.793 214.891,368.667 214.891 C 368.541 214.891,368.384 214.685,368.318 214.433 C 368.223 214.068,368.006 213.975,367.247 213.975 C 366.724 213.975,366.352 214.066,366.421 214.177 C 366.527 214.348,364.627 214.633,362.428 214.777 C 361.869 214.813,361.379 216.037,361.923 216.037 C 362.041 216.037,362.105 216.318,362.068 216.662 C 362.030 217.006,362.093 217.345,362.207 217.416 C 362.322 217.487,362.480 217.953,362.558 218.452 C 362.637 218.950,362.835 219.435,362.997 219.527 C 363.253 219.673,363.532 220.350,363.564 220.905 C 363.569 220.999,363.754 221.276,363.975 221.519 C 364.754 222.377,364.964 222.680,364.786 222.687 C 364.686 222.691,364.785 222.799,365.006 222.928 C 365.226 223.056,365.407 223.305,365.407 223.481 C 365.407 223.656,365.710 223.979,366.081 224.199 C 366.453 224.418,366.712 224.670,366.657 224.758 C 366.602 224.847,366.773 224.976,367.036 225.044 C 367.340 225.124,367.452 225.272,367.342 225.450 C 367.236 225.621,367.264 225.671,367.415 225.577 C 367.550 225.494,367.824 225.588,368.023 225.787 C 368.222 225.987,368.388 226.065,368.392 225.961 C 368.396 225.858,368.555 225.979,368.746 226.231 C 368.936 226.483,369.165 226.698,369.254 226.708 C 369.840 226.776,370.676 227.116,370.676 227.287 C 370.676 227.399,370.753 227.477,370.848 227.459 C 371.138 227.403,372.509 227.984,372.509 228.163 C 372.509 228.256,372.637 228.340,372.795 228.351 C 372.952 228.362,374.009 228.532,375.143 228.729 C 378.291 229.276,385.784 229.084,386.249 228.445 C 386.315 228.355,386.652 228.288,386.999 228.298 C 387.345 228.307,387.629 228.244,387.629 228.157 C 387.629 228.030,388.286 227.773,389.003 227.619 C 389.066 227.605,389.396 227.408,389.736 227.181 C 390.076 226.953,390.522 226.742,390.728 226.712 C 390.934 226.682,391.171 226.550,391.255 226.419 C 391.340 226.288,391.749 226.006,392.165 225.793 C 392.581 225.580,392.979 225.256,393.049 225.074 C 393.119 224.892,393.277 224.742,393.401 224.742 C 393.734 224.742,394.470 223.833,394.942 222.839 C 395.170 222.359,395.448 221.972,395.559 221.979 C 395.671 221.987,395.770 221.916,395.780 221.821 C 395.887 220.786,396.193 219.930,396.361 220.195 C 396.508 220.427,396.562 220.391,396.578 220.046 C 396.589 219.794,396.642 219.381,396.696 219.129 C 396.932 218.014,396.972 214.685,396.759 213.746 C 396.631 213.179,396.524 212.483,396.521 212.199 C 396.518 211.916,396.430 211.684,396.326 211.684 C 396.127 211.684,395.753 210.776,395.831 210.481 C 395.856 210.387,395.756 210.309,395.609 210.309 C 395.462 210.309,395.404 210.247,395.480 210.171 C 395.616 210.035,392.433 206.666,392.211 206.711 C 391.869 206.781,391.065 206.342,391.065 206.085 C 391.065 205.921,390.576 205.654,389.977 205.493 C 389.379 205.331,388.758 205.096,388.597 204.972 C 388.436 204.847,388.244 204.807,388.169 204.882 C 388.094 204.957,387.883 204.869,387.700 204.686 C 387.517 204.503,387.065 204.353,386.696 204.353 C 386.327 204.353,386.025 204.242,386.025 204.107 C 386.025 203.972,385.793 203.887,385.510 203.917 C 384.953 203.977,383.005 203.446,382.818 203.183 C 382.755 203.095,382.188 202.966,381.558 202.898 C 379.228 202.644,378.248 202.457,378.354 202.286 C 378.413 202.189,378.231 202.112,377.948 202.114 C 377.665 202.116,377.176 202.055,376.861 201.979 C 376.546 201.903,375.979 201.776,375.601 201.697 C 375.223 201.617,374.723 201.384,374.489 201.177 C 374.255 200.971,373.998 200.814,373.916 200.830 C 373.391 200.930,371.994 200.173,371.876 199.724 C 371.820 199.510,371.523 199.170,371.217 198.970 C 370.911 198.769,370.717 198.516,370.785 198.406 C 370.852 198.296,370.787 198.166,370.640 198.117 C 370.172 197.961,369.934 194.617,370.368 194.299 C 370.474 194.222,370.595 194.003,370.636 193.814 C 370.677 193.625,370.806 193.436,370.922 193.394 C 371.039 193.352,371.134 193.225,371.134 193.111 C 371.134 192.778,371.896 191.982,372.214 191.982 C 372.374 191.982,372.633 191.775,372.791 191.523 C 372.948 191.271,373.208 191.065,373.368 191.065 C 373.528 191.065,374.148 190.834,374.745 190.550 C 376.129 189.894,382.187 189.766,382.941 190.378 C 383.317 190.683,383.342 190.683,383.166 190.378 C 383.010 190.107,383.061 190.113,383.409 190.410 C 383.651 190.616,384.184 190.856,384.593 190.943 C 385.003 191.030,385.338 191.181,385.338 191.278 C 385.338 191.375,385.747 191.639,386.248 191.864 C 386.749 192.090,387.105 192.360,387.041 192.465 C 386.976 192.570,387.178 192.720,387.490 192.798 C 387.853 192.889,388.012 193.056,387.933 193.263 C 387.865 193.440,387.923 193.585,388.063 193.585 C 388.202 193.585,388.316 193.729,388.316 193.904 C 388.316 194.080,388.477 194.285,388.674 194.361 C 388.871 194.437,388.968 194.602,388.890 194.729 C 388.811 194.856,388.856 194.960,388.990 194.960 C 389.123 194.960,389.233 195.212,389.233 195.519 C 389.233 195.827,389.343 196.146,389.477 196.230 C 389.612 196.313,389.667 196.525,389.599 196.701 C 389.508 196.938,389.684 197.022,390.271 197.022 C 390.708 197.022,391.065 196.933,391.065 196.824 C 391.065 196.716,391.864 196.558,392.841 196.473 C 395.874 196.210,396.106 196.138,396.102 195.450 C 396.098 194.612,395.858 193.798,395.653 193.925 C 395.559 193.983,395.511 193.775,395.545 193.463 C 395.579 193.151,395.513 192.954,395.398 193.025 C 395.283 193.096,395.189 192.905,395.189 192.601 C 395.189 192.297,394.931 191.770,394.616 191.431 C 394.301 191.091,394.044 190.663,394.044 190.481 C 394.044 190.298,393.934 190.149,393.801 190.149 C 393.667 190.149,393.622 190.046,393.700 189.920 C 393.778 189.794,393.675 189.691,393.471 189.691 C 393.267 189.691,393.144 189.613,393.198 189.519 C 393.252 189.424,393.052 189.111,392.753 188.824 C 392.455 188.536,392.211 188.369,392.211 188.454 C 392.211 188.538,391.999 188.338,391.740 188.009 C 391.481 187.679,390.811 187.207,390.251 186.960 C 389.691 186.712,389.233 186.405,389.233 186.278 C 389.233 186.150,388.872 185.978,388.431 185.896 C 387.990 185.813,387.629 185.661,387.629 185.558 C 387.629 185.455,387.036 185.241,386.312 185.082 C 385.587 184.923,384.931 184.701,384.854 184.588 C 384.777 184.475,384.674 184.401,384.625 184.425 C 384.576 184.448,384.072 184.403,383.505 184.326 C 382.300 184.160,378.122 184.049,376.632 184.143 M56.586 185.210 C 56.586 185.391,56.691 185.605,56.819 185.684 C 56.947 185.763,56.993 185.924,56.920 186.041 C 56.848 186.158,56.888 186.254,57.009 186.254 C 57.130 186.254,57.445 186.621,57.710 187.070 C 57.974 187.518,58.088 187.822,57.961 187.744 C 57.583 187.510,57.698 187.748,58.304 188.452 C 58.619 188.818,58.877 189.304,58.877 189.532 C 58.877 189.760,58.981 189.883,59.107 189.805 C 59.233 189.727,59.336 189.826,59.336 190.024 C 59.336 190.411,59.739 191.206,60.180 191.688 C 60.329 191.851,60.516 192.190,60.596 192.441 C 60.676 192.692,60.825 192.898,60.928 192.898 C 61.095 192.898,61.379 193.534,61.492 194.158 C 61.514 194.284,61.657 194.361,61.809 194.330 C 61.961 194.298,62.085 194.471,62.085 194.714 C 62.085 194.957,62.246 195.317,62.443 195.515 C 62.640 195.712,62.727 195.993,62.637 196.139 C 62.538 196.298,62.572 196.344,62.720 196.252 C 62.859 196.166,63.040 196.326,63.133 196.617 C 63.223 196.901,63.462 197.271,63.664 197.439 C 63.939 197.666,63.945 197.698,63.688 197.564 C 63.499 197.466,63.631 197.727,63.980 198.144 C 64.329 198.560,64.818 199.349,65.067 199.895 C 65.316 200.441,65.625 200.954,65.753 201.033 C 65.882 201.112,65.928 201.273,65.855 201.390 C 65.783 201.508,65.832 201.604,65.966 201.604 C 66.099 201.604,66.208 201.810,66.208 202.062 C 66.208 202.314,66.301 202.520,66.415 202.520 C 66.529 202.520,66.730 202.829,66.861 203.207 C 66.993 203.585,67.209 203.895,67.342 203.895 C 67.475 203.895,67.583 204.052,67.583 204.245 C 67.583 204.438,67.746 204.659,67.946 204.736 C 68.238 204.848,68.249 204.913,68.003 205.068 C 67.756 205.225,67.755 205.263,67.997 205.266 C 68.162 205.268,68.240 205.361,68.171 205.474 C 68.101 205.587,68.188 205.735,68.365 205.802 C 68.541 205.870,68.755 206.243,68.840 206.630 C 68.925 207.018,69.090 207.277,69.205 207.205 C 69.321 207.133,69.416 207.287,69.416 207.547 C 69.416 207.806,69.519 208.018,69.645 208.018 C 69.771 208.018,69.874 208.213,69.874 208.452 C 69.874 208.691,70.029 208.945,70.218 209.018 C 70.407 209.090,70.561 209.307,70.561 209.500 C 70.561 209.693,70.670 209.851,70.804 209.851 C 70.937 209.851,70.983 209.954,70.905 210.080 C 70.827 210.206,70.873 210.309,71.006 210.309 C 71.139 210.309,71.249 210.451,71.249 210.625 C 71.249 210.798,71.398 211.065,71.581 211.217 C 71.861 211.448,71.917 212.825,71.930 219.768 C 71.942 226.042,72.014 228.087,72.227 228.222 C 72.382 228.320,73.930 228.402,75.667 228.404 L 78.825 228.408 78.760 220.046 C 78.724 215.447,78.765 211.684,78.851 211.684 C 78.937 211.684,79.073 211.476,79.153 211.222 C 79.234 210.968,79.396 210.820,79.512 210.892 C 79.629 210.964,79.725 210.837,79.725 210.609 C 79.726 210.381,79.983 209.895,80.298 209.529 C 80.613 209.163,80.871 208.684,80.871 208.465 C 80.871 208.246,81.032 208.006,81.229 207.930 C 81.426 207.854,81.535 207.708,81.471 207.605 C 81.300 207.329,82.132 206.152,82.353 206.356 C 82.457 206.451,82.485 206.297,82.415 206.013 C 82.345 205.730,82.381 205.555,82.496 205.626 C 82.610 205.697,82.703 205.617,82.703 205.448 C 82.703 205.280,82.932 204.946,83.212 204.707 C 83.530 204.434,83.618 204.238,83.447 204.181 C 83.283 204.126,83.421 203.863,83.798 203.516 C 84.141 203.200,84.284 203.012,84.117 203.099 C 83.949 203.186,84.050 202.894,84.341 202.450 C 84.633 202.005,84.935 201.681,85.013 201.730 C 85.091 201.778,85.280 201.403,85.431 200.897 C 85.583 200.390,85.850 199.921,86.024 199.854 C 86.198 199.788,86.284 199.587,86.215 199.408 C 86.147 199.230,86.205 199.084,86.344 199.084 C 86.484 199.084,86.598 198.929,86.598 198.740 C 86.598 198.551,86.707 198.396,86.841 198.396 C 86.974 198.396,87.027 198.306,86.959 198.196 C 86.891 198.086,87.081 197.731,87.380 197.408 C 87.679 197.085,87.867 196.763,87.796 196.692 C 87.725 196.621,87.767 196.564,87.888 196.564 C 88.010 196.564,88.241 196.201,88.401 195.758 C 88.561 195.315,88.790 195.014,88.911 195.088 C 89.031 195.162,89.116 195.138,89.099 195.034 C 89.048 194.722,89.389 193.814,89.557 193.814 C 89.643 193.814,89.844 193.452,90.004 193.009 C 90.165 192.566,90.381 192.256,90.485 192.320 C 90.589 192.385,90.735 192.278,90.810 192.083 C 90.899 191.850,90.848 191.778,90.662 191.872 C 90.506 191.951,90.543 191.879,90.746 191.711 C 90.948 191.544,91.187 191.174,91.278 190.889 C 91.368 190.604,91.536 190.430,91.652 190.501 C 91.767 190.573,91.800 190.471,91.725 190.275 C 91.650 190.080,91.692 189.920,91.818 189.920 C 91.944 189.920,92.112 189.658,92.193 189.338 C 92.273 189.018,92.439 188.817,92.561 188.893 C 92.683 188.969,92.784 188.815,92.784 188.552 C 92.784 188.288,92.938 188.014,93.126 187.941 C 93.314 187.869,93.411 187.718,93.341 187.605 C 93.272 187.492,93.330 187.400,93.471 187.400 C 93.612 187.400,93.663 187.297,93.585 187.171 C 93.507 187.045,93.553 186.942,93.686 186.942 C 93.820 186.942,93.929 186.824,93.929 186.680 C 93.929 186.537,94.109 186.271,94.330 186.091 C 94.568 185.896,94.591 185.832,94.387 185.933 C 94.140 186.056,94.158 185.973,94.454 185.635 C 95.053 184.951,94.697 184.880,90.703 184.880 C 87.787 184.880,87.285 184.931,87.285 185.231 C 87.285 185.424,87.131 185.641,86.943 185.713 C 86.755 185.785,86.650 185.923,86.710 186.020 C 86.769 186.117,86.566 186.469,86.258 186.801 C 85.949 187.135,85.756 187.557,85.828 187.744 C 85.902 187.936,85.799 188.144,85.591 188.224 C 85.389 188.302,85.223 188.509,85.223 188.684 C 85.223 188.860,85.095 189.005,84.937 189.007 C 84.746 189.009,84.765 189.084,84.994 189.233 C 85.243 189.393,85.255 189.456,85.039 189.458 C 84.874 189.460,84.543 189.906,84.302 190.450 C 84.062 190.993,83.658 191.625,83.404 191.855 C 83.151 192.084,82.998 192.361,83.066 192.470 C 83.133 192.580,83.088 192.669,82.964 192.669 C 82.841 192.669,82.672 192.979,82.588 193.358 C 82.505 193.737,82.342 193.989,82.226 193.917 C 82.111 193.846,82.016 194.000,82.016 194.259 C 82.016 194.519,81.913 194.731,81.787 194.731 C 81.661 194.731,81.558 194.943,81.558 195.203 C 81.558 195.462,81.455 195.611,81.329 195.533 C 81.203 195.455,81.100 195.603,81.100 195.863 C 81.100 196.122,80.883 196.551,80.618 196.816 C 80.353 197.081,80.115 197.437,80.090 197.607 C 80.065 197.777,79.862 198.118,79.639 198.365 C 79.415 198.612,79.208 198.983,79.177 199.188 C 79.147 199.394,78.946 199.768,78.730 200.021 C 78.514 200.273,78.389 200.563,78.452 200.666 C 78.515 200.769,78.273 201.147,77.912 201.507 C 77.552 201.867,77.308 202.294,77.370 202.455 C 77.432 202.617,77.369 202.749,77.230 202.749 C 77.090 202.749,76.976 202.904,76.976 203.093 C 76.976 203.282,76.856 203.436,76.709 203.436 C 76.562 203.436,76.503 203.498,76.579 203.574 C 76.769 203.764,75.839 205.498,75.546 205.498 C 75.222 205.498,74.701 204.781,74.692 204.324 C 74.688 204.119,74.528 203.820,74.336 203.661 C 74.144 203.502,74.034 203.323,74.093 203.265 C 74.151 203.206,73.999 202.944,73.755 202.682 C 73.510 202.419,73.310 202.062,73.310 201.889 C 73.310 201.715,73.053 201.236,72.739 200.824 C 72.424 200.411,72.235 200.006,72.319 199.923 C 72.402 199.839,72.361 199.771,72.228 199.771 C 72.095 199.771,71.915 199.487,71.829 199.141 C 71.743 198.794,71.486 198.305,71.258 198.053 C 71.030 197.801,70.766 197.337,70.672 197.022 C 70.578 196.707,70.309 196.175,70.073 195.841 C 69.838 195.506,69.645 195.136,69.645 195.017 C 69.645 194.899,69.441 194.617,69.192 194.392 C 68.943 194.167,68.788 193.904,68.847 193.808 C 68.906 193.712,68.803 193.575,68.617 193.503 C 68.430 193.432,68.334 193.228,68.402 193.051 C 68.470 192.873,68.359 192.664,68.154 192.586 C 67.950 192.507,67.841 192.350,67.911 192.236 C 67.981 192.123,67.874 191.966,67.673 191.889 C 67.471 191.812,67.363 191.602,67.431 191.424 C 67.500 191.245,67.407 190.976,67.226 190.825 C 67.044 190.674,66.896 190.409,66.896 190.235 C 66.896 190.062,66.775 189.920,66.628 189.920 C 66.481 189.920,66.427 189.854,66.507 189.774 C 66.587 189.694,66.443 189.333,66.186 188.972 C 65.929 188.611,65.803 188.313,65.907 188.309 C 66.010 188.305,65.934 188.176,65.740 188.022 C 65.545 187.869,65.249 187.408,65.082 186.999 C 64.915 186.589,64.688 186.254,64.577 186.254 C 64.466 186.254,64.376 186.069,64.376 185.842 C 64.376 184.979,63.946 184.880,60.206 184.880 C 57.207 184.880,56.586 184.936,56.586 185.210 M172.330 187.801 L 172.394 190.722 179.439 190.782 L 186.483 190.843 186.483 209.500 L 186.483 228.158 187.228 228.294 C 187.637 228.369,189.135 228.400,190.555 228.362 L 193.138 228.293 193.130 209.568 L 193.122 190.843 200.284 190.782 L 207.446 190.722 207.510 187.801 L 207.574 184.880 189.920 184.880 L 172.266 184.880 172.330 187.801 M232.990 206.505 C 232.990 226.207,233.023 228.142,233.360 228.272 C 233.564 228.350,240.419 228.410,248.595 228.404 L 263.459 228.395 263.459 225.413 C 263.459 223.161,263.389 222.440,263.173 222.468 C 263.015 222.489,257.706 222.493,251.375 222.478 L 239.863 222.451 239.863 215.693 L 239.863 208.935 250.866 208.935 L 261.869 208.935 261.805 206.014 L 261.741 203.093 250.802 203.033 L 239.863 202.974 239.863 196.905 L 239.863 190.836 251.375 190.809 C 257.706 190.794,263.004 190.796,263.148 190.813 C 263.612 190.869,263.572 185.201,263.107 185.023 C 262.902 184.944,256.042 184.880,247.862 184.880 L 232.990 184.880 232.990 206.505 M290.858 185.248 C 290.781 185.450,290.720 195.248,290.724 207.021 L 290.731 228.426 294.105 228.396 L 297.480 228.366 297.445 210.116 C 297.416 194.695,297.458 192.009,297.714 192.784 C 297.881 193.288,298.025 193.923,298.035 194.196 C 298.045 194.469,298.130 194.727,298.225 194.769 C 298.451 194.870,299.665 198.610,299.662 199.198 C 299.660 199.450,299.799 199.925,299.971 200.253 C 300.142 200.581,300.413 201.406,300.573 202.086 C 300.733 202.766,300.995 203.583,301.157 203.903 C 301.318 204.222,301.522 204.866,301.610 205.334 C 301.697 205.803,301.858 206.186,301.966 206.186 C 302.074 206.186,302.103 206.340,302.030 206.529 C 301.958 206.718,302.012 206.873,302.152 206.873 C 302.291 206.873,302.405 207.175,302.405 207.544 C 302.405 207.913,302.559 208.368,302.747 208.556 C 303.006 208.815,303.020 208.926,302.804 209.013 C 302.588 209.100,302.592 209.132,302.820 209.146 C 302.985 209.156,303.066 209.252,302.999 209.359 C 302.933 209.466,303.075 209.939,303.315 210.410 C 303.554 210.880,303.695 211.411,303.626 211.589 C 303.558 211.767,303.622 211.913,303.769 211.913 C 303.916 211.913,303.974 212.013,303.899 212.136 C 303.823 212.258,303.932 212.619,304.141 212.937 C 304.349 213.256,304.455 213.517,304.376 213.517 C 304.297 213.517,304.372 213.852,304.542 214.261 C 304.712 214.671,304.808 215.135,304.755 215.292 C 304.702 215.450,304.764 215.578,304.892 215.578 C 305.021 215.578,305.196 216.039,305.280 216.602 C 305.364 217.165,305.572 217.740,305.741 217.881 C 305.910 218.021,306.117 218.591,306.200 219.148 C 306.284 219.705,306.444 220.160,306.555 220.160 C 306.667 220.160,306.742 220.238,306.722 220.332 C 306.702 220.427,306.742 220.659,306.810 220.848 C 307.154 221.794,307.535 223.298,307.521 223.654 C 307.512 223.875,307.594 224.055,307.702 224.055 C 307.810 224.055,307.965 224.470,308.046 224.976 C 308.127 225.483,308.278 225.950,308.382 226.015 C 308.486 226.079,308.514 226.280,308.444 226.462 C 308.375 226.644,308.482 226.957,308.683 227.158 C 308.885 227.359,309.049 227.723,309.049 227.966 C 309.049 228.384,309.247 228.408,312.715 228.408 C 316.362 228.408,316.380 228.405,316.383 227.892 C 316.389 227.009,316.646 226.342,316.922 226.500 C 317.065 226.582,317.108 226.567,317.018 226.467 C 316.928 226.367,316.964 226.081,317.098 225.830 C 317.283 225.485,317.275 225.416,317.067 225.545 C 316.915 225.638,316.968 225.445,317.185 225.114 C 317.401 224.784,317.503 224.513,317.411 224.513 C 317.319 224.513,317.419 224.246,317.632 223.921 C 317.846 223.595,317.961 223.268,317.888 223.195 C 317.815 223.122,317.755 223.200,317.755 223.368 C 317.755 223.536,317.701 223.619,317.635 223.553 C 317.441 223.359,317.783 222.671,318.005 222.808 C 318.117 222.877,318.150 222.784,318.080 222.601 C 318.010 222.418,318.063 222.201,318.197 222.117 C 318.332 222.034,318.442 221.669,318.442 221.306 C 318.442 220.943,318.552 220.578,318.687 220.494 C 318.821 220.411,318.878 220.202,318.811 220.030 C 318.745 219.858,318.778 219.663,318.884 219.597 C 318.991 219.532,319.145 219.116,319.228 218.674 C 319.311 218.231,319.486 217.869,319.617 217.869 C 319.748 217.869,319.808 217.741,319.751 217.583 C 319.694 217.426,319.788 216.949,319.961 216.524 C 320.134 216.099,320.275 215.515,320.275 215.226 C 320.275 214.937,320.379 214.666,320.506 214.623 C 320.729 214.549,320.877 214.108,321.126 212.772 C 321.190 212.426,321.335 212.142,321.446 212.142 C 321.558 212.142,321.629 212.065,321.603 211.970 C 321.520 211.661,322.190 209.393,322.365 209.393 C 322.459 209.393,322.487 209.127,322.428 208.802 C 322.369 208.477,322.415 208.269,322.529 208.339 C 322.644 208.410,322.803 208.058,322.884 207.556 C 322.964 207.054,323.131 206.644,323.256 206.644 C 323.380 206.644,323.482 206.535,323.482 206.401 C 323.482 206.268,323.353 206.236,323.196 206.331 C 322.977 206.462,322.970 206.425,323.166 206.172 C 323.307 205.991,323.552 205.430,323.711 204.926 C 323.870 204.422,324.089 203.897,324.197 203.759 C 324.306 203.621,324.334 203.448,324.259 203.373 C 324.185 203.299,324.208 203.102,324.312 202.936 C 324.521 202.602,324.586 202.383,324.777 201.378 C 324.849 201.001,325.004 200.751,325.121 200.823 C 325.244 200.900,325.271 200.706,325.185 200.363 C 325.093 199.996,325.132 199.771,325.287 199.771 C 325.426 199.771,325.605 199.359,325.685 198.855 C 325.766 198.351,325.934 197.938,326.058 197.938 C 326.183 197.938,326.231 197.732,326.165 197.480 C 326.099 197.228,326.140 196.963,326.257 196.892 C 326.373 196.820,326.409 196.665,326.336 196.548 C 326.264 196.430,326.325 196.334,326.471 196.334 C 326.618 196.334,326.685 196.195,326.619 196.024 C 326.554 195.853,326.697 195.414,326.937 195.050 C 327.438 194.290,327.521 193.701,327.090 193.959 C 326.926 194.058,326.950 193.951,327.148 193.709 C 327.454 193.331,327.504 195.184,327.610 210.789 C 327.675 220.417,327.752 228.319,327.781 228.351 C 327.811 228.382,329.278 228.408,331.042 228.408 L 334.250 228.408 334.250 206.644 L 334.250 184.880 328.866 184.880 C 323.635 184.880,323.482 184.893,323.482 185.338 C 323.482 185.590,323.396 185.796,323.291 185.796 C 323.186 185.796,323.095 185.925,323.089 186.082 C 323.072 186.505,322.478 188.641,322.341 188.774 C 322.210 188.900,322.157 189.089,321.819 190.604 C 321.693 191.169,321.458 191.839,321.298 192.093 C 321.137 192.347,320.936 192.993,320.850 193.528 C 320.763 194.064,320.608 194.502,320.504 194.502 C 320.400 194.502,320.235 194.940,320.137 195.475 C 320.039 196.011,319.939 196.526,319.916 196.621 C 319.893 196.715,319.861 196.953,319.845 197.150 C 319.830 197.346,319.711 197.442,319.582 197.362 C 319.453 197.282,319.372 197.302,319.403 197.406 C 319.499 197.732,318.833 200.566,318.627 200.704 C 318.403 200.854,318.207 201.565,318.047 202.805 C 317.986 203.277,317.864 203.618,317.775 203.563 C 317.687 203.509,317.478 204.076,317.312 204.825 C 317.146 205.573,316.908 206.186,316.783 206.186 C 316.658 206.186,316.610 206.392,316.676 206.644 C 316.742 206.895,316.714 207.152,316.614 207.213 C 316.515 207.275,316.363 207.793,316.277 208.364 C 316.185 208.978,316.027 209.343,315.889 209.258 C 315.756 209.176,315.683 209.298,315.718 209.540 C 315.753 209.774,315.705 210.189,315.613 210.463 C 315.520 210.736,315.400 211.193,315.345 211.477 C 315.290 211.761,315.159 212.053,315.054 212.125 C 314.949 212.197,314.852 212.463,314.838 212.715 C 314.801 213.389,314.236 214.891,314.020 214.891 C 313.917 214.891,313.900 214.999,313.981 215.130 C 314.062 215.262,313.991 215.539,313.823 215.747 C 313.625 215.991,313.614 216.066,313.793 215.959 C 313.981 215.846,313.964 215.996,313.742 216.424 C 313.562 216.771,313.349 217.496,313.268 218.035 C 313.187 218.574,313.023 219.015,312.904 219.015 C 312.785 219.015,312.751 219.118,312.829 219.244 C 312.907 219.370,312.862 219.473,312.728 219.473 C 312.514 219.473,312.381 218.992,312.459 218.499 C 312.473 218.405,312.391 218.328,312.275 218.328 C 312.159 218.328,311.985 217.993,311.889 217.583 C 311.794 217.174,311.689 216.735,311.657 216.609 C 311.625 216.483,311.391 215.851,311.137 215.205 C 310.883 214.558,310.739 213.965,310.817 213.887 C 310.895 213.809,310.838 213.746,310.691 213.746 C 310.544 213.746,310.445 213.668,310.471 213.574 C 310.553 213.272,309.927 211.000,309.728 210.876 C 309.622 210.811,309.575 210.554,309.623 210.304 C 309.671 210.055,309.624 209.851,309.519 209.851 C 309.414 209.851,309.275 209.516,309.209 209.107 C 309.031 207.989,308.925 207.588,308.766 207.430 C 308.687 207.351,308.678 207.142,308.746 206.965 C 308.814 206.788,308.761 206.644,308.630 206.644 C 308.498 206.644,308.320 206.180,308.235 205.613 C 308.150 205.046,307.999 204.582,307.899 204.582 C 307.799 204.582,307.768 204.350,307.831 204.066 C 307.921 203.652,307.895 203.619,307.698 203.895 C 307.490 204.186,307.449 204.168,307.432 203.780 C 307.420 203.528,307.372 203.167,307.326 202.978 C 307.279 202.789,307.180 202.342,307.106 201.984 C 307.032 201.626,306.820 201.102,306.635 200.820 C 306.450 200.538,306.365 200.240,306.447 200.159 C 306.528 200.078,306.468 199.858,306.313 199.672 C 306.158 199.485,306.087 199.244,306.154 199.135 C 306.222 199.025,306.124 198.641,305.936 198.280 C 305.625 197.680,305.198 196.268,305.070 195.414 C 305.042 195.223,304.940 194.940,304.844 194.785 C 304.749 194.630,304.625 194.297,304.569 194.044 C 304.513 193.792,304.408 193.353,304.334 193.070 C 304.261 192.786,304.193 192.426,304.182 192.268 C 304.171 192.111,304.088 191.982,303.997 191.982 C 303.906 191.982,303.706 191.312,303.551 190.493 C 303.396 189.674,303.188 189.003,303.087 189.003 C 302.986 189.003,302.834 188.591,302.749 188.087 C 302.664 187.583,302.506 187.171,302.399 187.171 C 302.291 187.171,302.245 186.953,302.296 186.688 C 302.347 186.422,302.238 186.054,302.053 185.870 C 301.869 185.685,301.718 185.387,301.718 185.207 C 301.718 184.683,291.060 184.724,290.858 185.248 " stroke="none" fill="#24545c" fill-rule="evenodd"></path><path id="path1" d="M370.676 6.153 C 370.676 6.388,371.370 6.714,371.530 6.553 C 371.586 6.497,371.416 6.337,371.154 6.196 C 370.891 6.055,370.676 6.036,370.676 6.153 M227.279 80.985 C 227.279 81.111,227.426 81.472,227.606 81.787 C 227.786 82.102,227.933 82.257,227.933 82.131 C 227.933 82.005,227.786 81.644,227.606 81.329 C 227.426 81.014,227.279 80.859,227.279 80.985 M16.781 184.127 C 17.128 184.180,17.695 184.180,18.041 184.127 C 18.388 184.075,18.104 184.032,17.411 184.032 C 16.718 184.032,16.435 184.075,16.781 184.127 M132.593 184.129 C 133.005 184.180,133.623 184.179,133.967 184.127 C 134.312 184.075,133.975 184.033,133.219 184.034 C 132.463 184.036,132.181 184.078,132.593 184.129 M378.870 184.129 C 379.282 184.180,379.900 184.179,380.245 184.127 C 380.589 184.075,380.252 184.033,379.496 184.034 C 378.740 184.036,378.458 184.078,378.870 184.129 M193.236 209.393 C 193.236 219.662,193.265 223.863,193.299 218.729 C 193.333 213.594,193.333 205.192,193.299 200.057 C 193.265 194.923,193.236 199.124,193.236 209.393 M297.311 210.148 C 297.278 220.178,297.327 228.309,297.420 228.216 C 297.608 228.028,297.675 192.215,297.488 192.028 C 297.424 191.964,297.344 200.117,297.311 210.148 M141.928 193.650 C 142.149 194.000,142.388 194.229,142.458 194.159 C 142.529 194.088,142.348 193.802,142.056 193.522 L 141.526 193.013 141.928 193.650 M245.304 209.106 C 248.359 209.142,253.359 209.142,256.415 209.106 C 259.470 209.070,256.970 209.041,250.859 209.041 C 244.748 209.041,242.248 209.070,245.304 209.106 M150.813 216.037 C 150.813 216.730,150.856 217.013,150.909 216.667 C 150.961 216.320,150.961 215.753,150.909 215.407 C 150.856 215.060,150.813 215.344,150.813 216.037 M143.929 216.609 C 143.932 217.113,143.979 217.293,144.034 217.008 C 144.089 216.723,144.086 216.310,144.029 216.091 C 143.972 215.872,143.927 216.105,143.929 216.609 M317.792 222.805 C 317.408 223.647,317.481 223.827,317.897 223.061 C 318.090 222.703,318.206 222.368,318.154 222.316 C 318.101 222.263,317.939 222.483,317.792 222.805 M18.099 223.368 C 17.306 223.535,17.304 223.537,17.984 223.563 C 18.362 223.578,18.826 223.490,19.015 223.368 C 19.396 223.121,19.270 223.121,18.099 223.368 M133.104 223.371 C 133.293 223.491,133.749 223.591,134.116 223.593 C 135.002 223.598,134.809 223.466,133.677 223.292 C 133.053 223.196,132.870 223.221,133.104 223.371 M379.362 223.440 C 379.465 223.543,379.950 223.593,380.439 223.550 L 381.329 223.473 380.251 223.362 C 379.659 223.301,379.258 223.336,379.362 223.440 " stroke="none" fill="#28545c" fill-rule="evenodd"></path></g></svg>